<svg xmlns="http://www.w3.org/2000/svg" xmlns:xlink="http://www.w3.org/1999/xlink" width="150" zoomAndPan="magnify" viewBox="0 0 112.5 37.5" height="50" preserveAspectRatio="xMidYMid meet" version="1.0"><defs><g/><clipPath id="6ae78b4e61"><path d="M 12.386719 11.894531 L 29.488281 11.894531 L 29.488281 26.761719 L 12.386719 26.761719 Z M 12.386719 11.894531 " clip-rule="nonzero"/></clipPath></defs><g fill="#000000" fill-opacity="1"><g transform="translate(34.47272, 21.55921)"><g><path d="M 0.695312 0 L 1.011719 0 C 0.941406 -0.832031 0.929688 -1.230469 0.929688 -1.953125 L 0.929688 -7.421875 L 4.359375 0.199219 L 4.539062 0.199219 L 7.800781 -7.453125 L 7.800781 -1.953125 C 7.800781 -1.230469 7.789062 -0.832031 7.730469 0 L 8.859375 0 C 8.789062 -0.832031 8.78125 -1.230469 8.78125 -1.953125 L 8.78125 -5.976562 C 8.78125 -6.699219 8.789062 -7.09375 8.859375 -7.929688 L 7.839844 -7.929688 L 4.886719 -1.121094 L 1.785156 -7.929688 L 0.695312 -7.929688 C 0.753906 -7.09375 0.773438 -6.699219 0.773438 -5.976562 L 0.773438 -1.953125 C 0.773438 -1.230469 0.753906 -0.832031 0.695312 0 Z M 0.695312 0 "/></g></g></g><g fill="#000000" fill-opacity="1"><g transform="translate(43.588251, 21.55921)"><g><path d="M 5.105469 0 C 4.953125 -0.742188 4.953125 -1.25 4.953125 -1.921875 L 4.953125 -3.429688 C 4.945312 -4.488281 4.25 -4.875 3.25 -4.875 C 2.269531 -4.875 1.359375 -4.449219 0.703125 -3.992188 C 0.78125 -3.507812 1.308594 -3.4375 1.617188 -3.816406 C 1.882812 -4.113281 2.179688 -4.71875 3.152344 -4.71875 C 3.777344 -4.71875 4.09375 -4.320312 4.09375 -3.605469 C 4.09375 -2.992188 3.527344 -2.835938 2.695312 -2.695312 C 1.664062 -2.527344 0.566406 -2.199219 0.566406 -1.101562 C 0.566406 -0.199219 1.359375 0.199219 2.179688 0.199219 C 3.261719 0.199219 3.855469 -0.40625 4.09375 -1.160156 C 4.101562 -0.792969 4.121094 -0.484375 4.171875 0 Z M 2.558594 -0.0976562 C 1.953125 -0.0976562 1.515625 -0.484375 1.515625 -1.21875 C 1.515625 -1.960938 1.960938 -2.386719 2.84375 -2.578125 C 3.4375 -2.707031 3.875 -2.785156 4.09375 -3.09375 L 4.09375 -2.042969 C 4.09375 -0.921875 3.488281 -0.0976562 2.558594 -0.0976562 Z M 2.558594 -0.0976562 "/></g></g></g><g fill="#000000" fill-opacity="1"><g transform="translate(48.819699, 21.55921)"><g><path d="M 4.035156 -4.675781 C 2.902344 -4.855469 2.328125 -4.261719 1.574219 -3.449219 C 1.585938 -3.824219 1.605469 -4.203125 1.65625 -4.675781 L 0.632812 -4.675781 C 0.714844 -3.933594 0.714844 -3.429688 0.714844 -2.8125 L 0.714844 -1.851562 C 0.714844 -1.25 0.714844 -0.742188 0.632812 0 L 1.65625 0 C 1.574219 -0.742188 1.574219 -1.25 1.574219 -1.851562 L 1.574219 -3.21875 C 2.535156 -4.203125 2.875 -4.261719 3.347656 -4.09375 C 3.875 -3.914062 4.140625 -4.242188 4.035156 -4.675781 Z M 4.035156 -4.675781 "/></g></g></g><g fill="#000000" fill-opacity="1"><g transform="translate(52.683789, 21.55921)"><g><path d="M 1.316406 -5.886719 L 2 -6.511719 L 1.316406 -7.136719 L 0.632812 -6.511719 Z M 0.8125 -4.675781 C 0.890625 -3.933594 0.890625 -3.429688 0.890625 -2.8125 L 0.890625 -1.851562 C 0.890625 -1.25 0.890625 -0.742188 0.8125 0 L 1.832031 0 C 1.753906 -0.742188 1.753906 -1.25 1.753906 -1.851562 L 1.753906 -2.8125 C 1.753906 -3.429688 1.753906 -3.933594 1.832031 -4.675781 Z M 0.8125 -4.675781 "/></g></g></g><g fill="#000000" fill-opacity="1"><g transform="translate(54.883279, 21.55921)"><g><path d="M 4.042969 -4.675781 C 4.152344 -3.726562 4.152344 -3.359375 4.152344 -2.746094 L 4.152344 -1.269531 C 3.835938 -0.652344 3.289062 -0.0390625 2.527344 -0.0390625 C 1.894531 -0.0390625 1.617188 -0.515625 1.617188 -1.417969 L 1.617188 -4.675781 L 0.632812 -4.675781 C 0.753906 -3.726562 0.753906 -3.359375 0.753906 -2.746094 L 0.753906 -1.675781 C 0.753906 -0.355469 1.257812 0.199219 2.230469 0.199219 C 3.171875 0.199219 3.816406 -0.445312 4.140625 -1.058594 C 4.132812 -0.773438 4.121094 -0.457031 4.082031 0 L 5.015625 0 L 5.015625 -4.675781 Z M 4.042969 -4.675781 "/></g></g></g><g fill="#000000" fill-opacity="1"><g transform="translate(60.094909, 21.55921)"><g><path d="M 6.242188 0 L 7.253906 0 C 7.175781 -0.953125 7.175781 -1.316406 7.175781 -1.921875 L 7.175781 -3.210938 C 7.175781 -4.320312 6.808594 -4.875 6.054688 -4.875 C 5.253906 -4.875 4.675781 -4.203125 4.359375 -3.605469 C 4.28125 -4.449219 3.914062 -4.875 3.261719 -4.875 C 2.457031 -4.875 1.882812 -4.191406 1.585938 -3.597656 C 1.59375 -3.925781 1.617188 -4.261719 1.65625 -4.675781 L 0.632812 -4.675781 C 0.714844 -3.933594 0.714844 -3.429688 0.714844 -2.8125 L 0.714844 -1.851562 C 0.714844 -1.25 0.714844 -0.742188 0.632812 0 L 1.65625 0 C 1.574219 -0.742188 1.574219 -1.25 1.574219 -1.851562 L 1.574219 -3.328125 C 1.894531 -3.953125 2.339844 -4.597656 2.964844 -4.597656 C 3.398438 -4.597656 3.519531 -4.203125 3.519531 -3.398438 L 3.519531 -1.921875 C 3.519531 -1.316406 3.519531 -0.953125 3.4375 0 L 4.460938 0 C 4.378906 -0.953125 4.378906 -1.316406 4.378906 -1.921875 L 4.378906 -3.378906 C 4.707031 -3.984375 5.152344 -4.597656 5.757812 -4.597656 C 6.195312 -4.597656 6.324219 -4.203125 6.324219 -3.398438 L 6.324219 -1.921875 C 6.324219 -1.316406 6.324219 -0.953125 6.242188 0 Z M 6.242188 0 "/></g></g></g><g fill="#000000" fill-opacity="1"><g transform="translate(67.545831, 21.55921)"><g/></g></g><g fill="#000000" fill-opacity="1"><g transform="translate(69.943484, 21.55921)"><g><path d="M 9.464844 -3.964844 C 9.464844 -6.390625 7.5625 -8.125 5.023438 -8.125 C 2.488281 -8.125 0.59375 -6.390625 0.59375 -3.964844 C 0.59375 -1.527344 2.488281 0.199219 5.023438 0.199219 C 5.230469 0.199219 5.429688 0.1875 5.628906 0.167969 C 5.667969 0.226562 5.707031 0.296875 5.757812 0.367188 C 6.152344 0.972656 6.859375 1.109375 7.671875 1.109375 L 7.671875 0.960938 C 6.9375 0.960938 6.550781 0.632812 6.234375 0.148438 L 6.183594 0.0703125 C 8.117188 -0.367188 9.464844 -1.914062 9.464844 -3.964844 Z M 6.046875 -0.128906 C 5.777344 -0.503906 5.460938 -0.800781 4.933594 -0.800781 C 4.460938 -0.800781 4.121094 -0.496094 3.90625 -0.160156 C 2.488281 -0.703125 1.664062 -2.277344 1.664062 -3.964844 C 1.664062 -6.046875 2.921875 -7.96875 5.023438 -7.96875 C 7.125 -7.96875 8.394531 -6.046875 8.394531 -3.964844 C 8.394531 -2.238281 7.53125 -0.632812 6.046875 -0.128906 Z M 5.023438 0.0390625 C 4.675781 0.0390625 4.359375 -0.0117188 4.054688 -0.109375 C 4.210938 -0.386719 4.507812 -0.644531 4.847656 -0.644531 C 5.210938 -0.644531 5.371094 -0.335938 5.550781 0 C 5.382812 0.03125 5.203125 0.0390625 5.023438 0.0390625 Z M 5.023438 0.0390625 "/></g></g></g><g fill="#000000" fill-opacity="1"><g transform="translate(79.564344, 21.55921)"><g><path d="M 5.105469 0 C 4.953125 -0.742188 4.953125 -1.25 4.953125 -1.921875 L 4.953125 -3.429688 C 4.945312 -4.488281 4.25 -4.875 3.25 -4.875 C 2.269531 -4.875 1.359375 -4.449219 0.703125 -3.992188 C 0.78125 -3.507812 1.308594 -3.4375 1.617188 -3.816406 C 1.882812 -4.113281 2.179688 -4.71875 3.152344 -4.71875 C 3.777344 -4.71875 4.09375 -4.320312 4.09375 -3.605469 C 4.09375 -2.992188 3.527344 -2.835938 2.695312 -2.695312 C 1.664062 -2.527344 0.566406 -2.199219 0.566406 -1.101562 C 0.566406 -0.199219 1.359375 0.199219 2.179688 0.199219 C 3.261719 0.199219 3.855469 -0.40625 4.09375 -1.160156 C 4.101562 -0.792969 4.121094 -0.484375 4.171875 0 Z M 2.558594 -0.0976562 C 1.953125 -0.0976562 1.515625 -0.484375 1.515625 -1.21875 C 1.515625 -1.960938 1.960938 -2.386719 2.84375 -2.578125 C 3.4375 -2.707031 3.875 -2.785156 4.09375 -3.09375 L 4.09375 -2.042969 C 4.09375 -0.921875 3.488281 -0.0976562 2.558594 -0.0976562 Z M 2.558594 -0.0976562 "/></g></g></g><g fill="#000000" fill-opacity="1"><g transform="translate(84.795791, 21.55921)"><g><path d="M 6.242188 0 L 7.253906 0 C 7.175781 -0.953125 7.175781 -1.316406 7.175781 -1.921875 L 7.175781 -3.210938 C 7.175781 -4.320312 6.808594 -4.875 6.054688 -4.875 C 5.253906 -4.875 4.675781 -4.203125 4.359375 -3.605469 C 4.28125 -4.449219 3.914062 -4.875 3.261719 -4.875 C 2.457031 -4.875 1.882812 -4.191406 1.585938 -3.597656 C 1.59375 -3.925781 1.617188 -4.261719 1.65625 -4.675781 L 0.632812 -4.675781 C 0.714844 -3.933594 0.714844 -3.429688 0.714844 -2.8125 L 0.714844 -1.851562 C 0.714844 -1.25 0.714844 -0.742188 0.632812 0 L 1.65625 0 C 1.574219 -0.742188 1.574219 -1.25 1.574219 -1.851562 L 1.574219 -3.328125 C 1.894531 -3.953125 2.339844 -4.597656 2.964844 -4.597656 C 3.398438 -4.597656 3.519531 -4.203125 3.519531 -3.398438 L 3.519531 -1.921875 C 3.519531 -1.316406 3.519531 -0.953125 3.4375 0 L 4.460938 0 C 4.378906 -0.953125 4.378906 -1.316406 4.378906 -1.921875 L 4.378906 -3.378906 C 4.707031 -3.984375 5.152344 -4.597656 5.757812 -4.597656 C 6.195312 -4.597656 6.324219 -4.203125 6.324219 -3.398438 L 6.324219 -1.921875 C 6.324219 -1.316406 6.324219 -0.953125 6.242188 0 Z M 6.242188 0 "/></g></g></g><g fill="#000000" fill-opacity="1"><g transform="translate(92.246716, 21.55921)"><g><path d="M 5.105469 0 C 4.953125 -0.742188 4.953125 -1.25 4.953125 -1.921875 L 4.953125 -3.429688 C 4.945312 -4.488281 4.25 -4.875 3.25 -4.875 C 2.269531 -4.875 1.359375 -4.449219 0.703125 -3.992188 C 0.78125 -3.507812 1.308594 -3.4375 1.617188 -3.816406 C 1.882812 -4.113281 2.179688 -4.71875 3.152344 -4.71875 C 3.777344 -4.71875 4.09375 -4.320312 4.09375 -3.605469 C 4.09375 -2.992188 3.527344 -2.835938 2.695312 -2.695312 C 1.664062 -2.527344 0.566406 -2.199219 0.566406 -1.101562 C 0.566406 -0.199219 1.359375 0.199219 2.179688 0.199219 C 3.261719 0.199219 3.855469 -0.40625 4.09375 -1.160156 C 4.101562 -0.792969 4.121094 -0.484375 4.171875 0 Z M 2.558594 -0.0976562 C 1.953125 -0.0976562 1.515625 -0.484375 1.515625 -1.21875 C 1.515625 -1.960938 1.960938 -2.386719 2.84375 -2.578125 C 3.4375 -2.707031 3.875 -2.785156 4.09375 -3.09375 L 4.09375 -2.042969 C 4.09375 -0.921875 3.488281 -0.0976562 2.558594 -0.0976562 Z M 2.558594 -0.0976562 "/></g></g></g><g fill="#000000" fill-opacity="1"><g transform="translate(97.478165, 21.55921)"><g><path d="M 4.035156 -4.675781 C 2.902344 -4.855469 2.328125 -4.261719 1.574219 -3.449219 C 1.585938 -3.824219 1.605469 -4.203125 1.65625 -4.675781 L 0.632812 -4.675781 C 0.714844 -3.933594 0.714844 -3.429688 0.714844 -2.8125 L 0.714844 -1.851562 C 0.714844 -1.25 0.714844 -0.742188 0.632812 0 L 1.65625 0 C 1.574219 -0.742188 1.574219 -1.25 1.574219 -1.851562 L 1.574219 -3.21875 C 2.535156 -4.203125 2.875 -4.261719 3.347656 -4.09375 C 3.875 -3.914062 4.140625 -4.242188 4.035156 -4.675781 Z M 4.035156 -4.675781 "/></g></g></g><g clip-path="url(#6ae78b4e61)"><path fill="#231f20" d="M 29.199219 17.875 C 29.015625 17.417969 28.742188 16.996094 28.382812 16.648438 C 28.308594 16.570312 28.21875 16.5 28.121094 16.433594 C 28.121094 15.910156 27.996094 15.394531 27.757812 14.9375 C 27.519531 14.476562 27.164062 14.074219 26.710938 13.78125 C 26.429688 13.601562 26.113281 13.449219 25.785156 13.34375 C 25.453125 13.238281 25.105469 13.179688 24.757812 13.179688 C 24.636719 13.179688 24.515625 13.1875 24.394531 13.203125 C 24.390625 13.195312 24.390625 13.191406 24.386719 13.1875 C 24.207031 12.945312 23.972656 12.722656 23.734375 12.539062 C 23.617188 12.449219 23.496094 12.367188 23.378906 12.300781 C 23.261719 12.230469 23.152344 12.175781 23.050781 12.132812 C 22.640625 11.96875 22.214844 11.898438 21.785156 11.898438 C 21.253906 11.898438 20.71875 12.007812 20.21875 12.183594 C 20.117188 12.214844 20.007812 12.261719 19.898438 12.316406 C 19.410156 12.09375 18.886719 11.984375 18.363281 11.984375 C 17.6875 11.984375 17.011719 12.164062 16.421875 12.511719 C 16.179688 12.65625 15.820312 12.894531 15.523438 13.179688 C 15.371094 13.324219 15.234375 13.484375 15.136719 13.652344 C 15.125 13.667969 15.113281 13.6875 15.105469 13.707031 C 14.8125 13.742188 14.535156 13.835938 14.277344 13.976562 C 13.796875 14.238281 13.398438 14.65625 13.117188 15.144531 C 12.835938 15.632812 12.671875 16.195312 12.671875 16.746094 C 12.671875 16.988281 12.703125 17.226562 12.769531 17.457031 C 12.75 17.476562 12.730469 17.496094 12.714844 17.519531 C 12.597656 17.65625 12.519531 17.816406 12.464844 17.984375 C 12.414062 18.15625 12.386719 18.335938 12.386719 18.519531 C 12.386719 18.847656 12.46875 19.1875 12.609375 19.492188 C 12.683594 19.640625 12.769531 19.785156 12.871094 19.910156 C 12.972656 20.039062 13.089844 20.152344 13.222656 20.238281 C 13.40625 20.367188 13.605469 20.460938 13.8125 20.527344 C 14.023438 20.589844 14.238281 20.625 14.457031 20.636719 C 14.5 20.636719 14.539062 20.601562 14.539062 20.558594 C 14.542969 20.515625 14.507812 20.480469 14.464844 20.476562 C 14.257812 20.46875 14.054688 20.4375 13.863281 20.375 C 13.667969 20.316406 13.484375 20.230469 13.3125 20.109375 C 13.195312 20.03125 13.089844 19.929688 12.996094 19.8125 C 12.855469 19.640625 12.742188 19.429688 12.667969 19.207031 C 12.589844 18.984375 12.546875 18.75 12.546875 18.519531 C 12.546875 18.371094 12.566406 18.222656 12.605469 18.085938 C 12.632812 17.980469 12.671875 17.882812 12.722656 17.792969 C 12.753906 17.734375 12.789062 17.679688 12.828125 17.632812 C 12.898438 17.808594 12.988281 17.980469 13.101562 18.140625 C 13.1875 18.257812 13.3125 18.355469 13.449219 18.425781 C 13.589844 18.492188 13.742188 18.535156 13.898438 18.535156 C 13.972656 18.535156 14.046875 18.523438 14.121094 18.503906 C 14.191406 18.480469 14.261719 18.449219 14.324219 18.40625 C 14.417969 18.339844 14.484375 18.253906 14.527344 18.160156 C 14.574219 18.066406 14.59375 17.96875 14.59375 17.867188 C 14.59375 17.765625 14.574219 17.664062 14.535156 17.566406 C 14.496094 17.472656 14.441406 17.386719 14.371094 17.3125 C 14.285156 17.21875 14.179688 17.15625 14.0625 17.113281 C 13.949219 17.070312 13.824219 17.050781 13.703125 17.050781 C 13.625 17.050781 13.546875 17.058594 13.472656 17.074219 C 13.285156 17.117188 13.121094 17.1875 12.984375 17.277344 C 12.957031 17.296875 12.929688 17.316406 12.902344 17.335938 C 12.855469 17.144531 12.832031 16.949219 12.832031 16.746094 C 12.832031 16.402344 12.898438 16.046875 13.027344 15.710938 C 13.214844 15.207031 13.53125 14.746094 13.929688 14.40625 C 14.128906 14.238281 14.351562 14.101562 14.585938 14.003906 C 14.730469 13.945312 14.878906 13.90625 15.03125 13.878906 C 15.027344 13.890625 15.023438 13.902344 15.019531 13.910156 C 14.992188 14 14.976562 14.089844 14.976562 14.183594 C 14.976562 14.261719 14.988281 14.34375 15.015625 14.425781 C 15.039062 14.503906 15.082031 14.585938 15.136719 14.660156 C 15.210938 14.757812 15.304688 14.835938 15.414062 14.890625 C 15.519531 14.945312 15.640625 14.972656 15.761719 14.972656 C 15.789062 14.972656 15.816406 14.972656 15.84375 14.96875 C 15.914062 14.960938 15.988281 14.941406 16.054688 14.910156 C 16.121094 14.875 16.183594 14.832031 16.234375 14.769531 C 16.265625 14.722656 16.292969 14.675781 16.308594 14.621094 C 16.324219 14.570312 16.332031 14.519531 16.332031 14.464844 C 16.332031 14.355469 16.300781 14.246094 16.25 14.152344 C 16.207031 14.074219 16.148438 14.007812 16.082031 13.949219 C 15.984375 13.863281 15.867188 13.796875 15.742188 13.753906 C 15.617188 13.714844 15.484375 13.691406 15.355469 13.691406 C 15.347656 13.691406 15.34375 13.691406 15.335938 13.691406 C 15.320312 13.691406 15.308594 13.691406 15.296875 13.695312 C 15.328125 13.652344 15.355469 13.605469 15.390625 13.566406 C 15.539062 13.371094 15.742188 13.1875 15.945312 13.027344 C 16.144531 12.871094 16.347656 12.742188 16.503906 12.648438 C 17.066406 12.3125 17.714844 12.140625 18.359375 12.140625 C 18.824219 12.140625 19.285156 12.230469 19.71875 12.410156 C 19.664062 12.441406 19.613281 12.472656 19.5625 12.511719 C 19.425781 12.605469 19.296875 12.714844 19.203125 12.839844 C 19.15625 12.902344 19.117188 12.96875 19.089844 13.039062 C 19.0625 13.109375 19.046875 13.1875 19.046875 13.261719 C 19.046875 13.347656 19.066406 13.429688 19.105469 13.515625 C 19.140625 13.601562 19.199219 13.683594 19.277344 13.769531 C 19.351562 13.851562 19.449219 13.914062 19.550781 13.957031 C 19.652344 14.003906 19.765625 14.023438 19.875 14.023438 C 19.996094 14.023438 20.113281 13.996094 20.222656 13.945312 C 20.355469 13.878906 20.464844 13.769531 20.542969 13.644531 C 20.617188 13.523438 20.660156 13.375 20.660156 13.230469 C 20.660156 13.179688 20.65625 13.132812 20.644531 13.085938 C 20.628906 13.011719 20.605469 12.941406 20.570312 12.875 C 20.519531 12.777344 20.453125 12.6875 20.371094 12.613281 C 20.292969 12.539062 20.199219 12.472656 20.105469 12.421875 C 20.09375 12.417969 20.085938 12.410156 20.074219 12.40625 C 20.140625 12.375 20.207031 12.351562 20.269531 12.328125 C 20.757812 12.160156 21.273438 12.054688 21.785156 12.054688 C 22.191406 12.054688 22.601562 12.125 22.988281 12.28125 C 23.128906 12.335938 23.296875 12.429688 23.472656 12.546875 C 23.734375 12.722656 24.003906 12.960938 24.207031 13.214844 C 24.210938 13.222656 24.214844 13.226562 24.21875 13.230469 C 23.988281 13.277344 23.769531 13.355469 23.554688 13.472656 C 23.433594 13.535156 23.324219 13.628906 23.238281 13.742188 C 23.152344 13.851562 23.089844 13.980469 23.066406 14.121094 C 23.058594 14.167969 23.058594 14.210938 23.058594 14.253906 C 23.058594 14.359375 23.078125 14.457031 23.121094 14.542969 C 23.148438 14.605469 23.1875 14.660156 23.238281 14.710938 C 23.308594 14.78125 23.394531 14.835938 23.492188 14.871094 C 23.585938 14.90625 23.6875 14.925781 23.792969 14.925781 C 23.894531 14.925781 24 14.910156 24.097656 14.871094 C 24.199219 14.835938 24.292969 14.78125 24.371094 14.707031 C 24.484375 14.601562 24.570312 14.488281 24.621094 14.371094 C 24.675781 14.25 24.699219 14.128906 24.699219 14.007812 C 24.699219 13.90625 24.683594 13.800781 24.652344 13.703125 C 24.617188 13.582031 24.558594 13.464844 24.492188 13.351562 C 24.582031 13.339844 24.667969 13.335938 24.757812 13.335938 C 25.085938 13.335938 25.414062 13.394531 25.734375 13.496094 C 26.050781 13.59375 26.355469 13.742188 26.625 13.914062 C 27.054688 14.191406 27.390625 14.570312 27.617188 15.007812 C 27.828125 15.414062 27.945312 15.867188 27.960938 16.332031 C 27.914062 16.304688 27.867188 16.28125 27.816406 16.257812 C 27.707031 16.207031 27.597656 16.164062 27.484375 16.136719 C 27.371094 16.105469 27.253906 16.089844 27.140625 16.089844 C 27.054688 16.089844 26.972656 16.101562 26.890625 16.121094 C 26.769531 16.148438 26.652344 16.199219 26.546875 16.28125 C 26.441406 16.363281 26.351562 16.472656 26.273438 16.609375 C 26.203125 16.738281 26.167969 16.878906 26.167969 17.019531 C 26.167969 17.160156 26.203125 17.296875 26.269531 17.417969 C 26.335938 17.542969 26.4375 17.648438 26.5625 17.726562 C 26.640625 17.777344 26.722656 17.8125 26.800781 17.832031 C 26.878906 17.855469 26.957031 17.867188 27.035156 17.867188 C 27.171875 17.867188 27.308594 17.832031 27.429688 17.769531 C 27.609375 17.679688 27.765625 17.535156 27.882812 17.363281 C 28 17.1875 28.078125 16.988281 28.101562 16.78125 C 28.105469 16.730469 28.109375 16.675781 28.113281 16.625 C 28.167969 16.667969 28.222656 16.714844 28.269531 16.761719 C 28.609375 17.089844 28.871094 17.496094 29.050781 17.9375 C 29.226562 18.375 29.320312 18.851562 29.320312 19.328125 C 29.320312 19.453125 29.3125 19.574219 29.300781 19.699219 C 29.289062 19.816406 29.265625 19.9375 29.234375 20.054688 C 29.183594 20.230469 29.105469 20.394531 29 20.53125 C 28.949219 20.601562 28.886719 20.660156 28.820312 20.714844 C 28.75 20.765625 28.671875 20.808594 28.585938 20.839844 C 28.441406 20.890625 28.296875 20.914062 28.152344 20.914062 C 28.027344 20.914062 27.90625 20.894531 27.78125 20.867188 C 27.597656 20.824219 27.417969 20.75 27.246094 20.660156 C 27.070312 20.574219 26.902344 20.46875 26.746094 20.363281 C 25.925781 19.800781 25.121094 19.15625 24.257812 18.621094 C 23.824219 18.355469 23.378906 18.121094 22.90625 17.9375 C 22.457031 17.761719 21.984375 17.636719 21.484375 17.582031 C 21.589844 17.289062 21.734375 17.007812 21.910156 16.753906 C 22.023438 16.8125 22.140625 16.863281 22.253906 16.914062 C 22.757812 17.121094 23.289062 17.25 23.828125 17.25 C 23.976562 17.25 24.128906 17.238281 24.28125 17.21875 C 24.390625 17.203125 24.503906 17.179688 24.613281 17.140625 C 24.78125 17.085938 24.941406 17.007812 25.070312 16.898438 C 25.132812 16.84375 25.191406 16.78125 25.238281 16.710938 C 25.285156 16.640625 25.320312 16.5625 25.339844 16.476562 C 25.351562 16.421875 25.359375 16.367188 25.359375 16.316406 C 25.359375 16.234375 25.34375 16.160156 25.320312 16.085938 C 25.289062 15.972656 25.230469 15.871094 25.15625 15.777344 C 25.082031 15.6875 24.992188 15.609375 24.890625 15.546875 C 24.777344 15.480469 24.652344 15.433594 24.523438 15.402344 C 24.398438 15.375 24.265625 15.363281 24.132812 15.363281 C 24.042969 15.363281 23.953125 15.367188 23.867188 15.378906 C 23.535156 15.414062 23.226562 15.507812 22.945312 15.648438 C 22.523438 15.855469 22.167969 16.164062 21.882812 16.53125 C 21.875 16.539062 21.871094 16.546875 21.863281 16.554688 C 21.542969 16.386719 21.230469 16.1875 20.941406 15.972656 C 20.757812 15.835938 20.574219 15.6875 20.382812 15.546875 C 20.195312 15.40625 20 15.265625 19.792969 15.144531 C 19.597656 15.03125 19.394531 14.941406 19.183594 14.878906 C 18.972656 14.816406 18.757812 14.78125 18.539062 14.78125 C 18.328125 14.78125 18.113281 14.8125 17.894531 14.882812 C 17.425781 15.027344 16.996094 15.296875 16.640625 15.648438 C 16.285156 15.996094 16.007812 16.417969 15.851562 16.882812 C 15.800781 17.03125 15.761719 17.195312 15.761719 17.363281 C 15.761719 17.445312 15.769531 17.523438 15.792969 17.601562 C 15.8125 17.679688 15.847656 17.753906 15.902344 17.824219 C 15.914062 17.839844 15.929688 17.859375 15.945312 17.875 C 15.910156 17.925781 15.875 17.972656 15.84375 18.015625 C 15.65625 18.273438 15.488281 18.5625 15.367188 18.863281 C 15.246094 19.167969 15.175781 19.488281 15.175781 19.816406 C 15.175781 19.988281 15.195312 20.15625 15.238281 20.324219 C 15.289062 20.535156 15.375 20.726562 15.484375 20.890625 C 15.648438 21.140625 15.867188 21.34375 16.121094 21.492188 C 16.375 21.644531 16.667969 21.742188 16.976562 21.792969 C 17.167969 21.824219 17.359375 21.839844 17.550781 21.839844 C 17.769531 21.839844 17.984375 21.824219 18.203125 21.796875 C 18.558594 21.757812 18.894531 21.671875 19.230469 21.59375 C 19.566406 21.515625 19.898438 21.453125 20.238281 21.453125 C 20.285156 21.453125 20.328125 21.453125 20.375 21.453125 C 20.578125 21.464844 20.777344 21.476562 20.976562 21.492188 C 20.992188 21.636719 21.03125 21.78125 21.082031 21.925781 C 21.1875 22.21875 21.359375 22.492188 21.558594 22.742188 C 21.757812 22.988281 21.980469 23.207031 22.195312 23.375 C 22.386719 23.523438 22.585938 23.664062 22.777344 23.804688 C 22.96875 23.949219 23.152344 24.097656 23.316406 24.261719 C 23.53125 24.480469 23.683594 24.71875 23.777344 24.972656 C 23.875 25.230469 23.917969 25.503906 23.917969 25.796875 C 23.917969 25.898438 23.914062 26 23.902344 26.109375 C 23.890625 26.261719 23.835938 26.441406 23.75 26.640625 C 23.734375 26.679688 23.753906 26.726562 23.792969 26.742188 C 23.832031 26.757812 23.878906 26.742188 23.898438 26.699219 C 23.988281 26.492188 24.042969 26.296875 24.0625 26.121094 C 24.074219 26.011719 24.078125 25.902344 24.078125 25.792969 C 24.078125 25.488281 24.03125 25.191406 23.925781 24.917969 C 23.824219 24.640625 23.660156 24.386719 23.429688 24.152344 C 23.257812 23.976562 23.066406 23.824219 22.871094 23.679688 C 22.679688 23.535156 22.480469 23.394531 22.292969 23.25 C 22.023438 23.035156 21.726562 22.734375 21.503906 22.398438 C 21.390625 22.226562 21.296875 22.050781 21.230469 21.867188 C 21.183594 21.746094 21.15625 21.625 21.140625 21.503906 C 21.257812 21.515625 21.378906 21.53125 21.496094 21.550781 C 21.855469 21.609375 22.199219 21.707031 22.519531 21.886719 C 22.890625 22.09375 23.261719 22.332031 23.652344 22.523438 C 23.851562 22.617188 24.050781 22.703125 24.257812 22.761719 C 24.464844 22.824219 24.679688 22.863281 24.902344 22.871094 C 24.921875 22.871094 24.945312 22.871094 24.96875 22.871094 C 25.128906 22.871094 25.296875 22.851562 25.453125 22.808594 C 25.609375 22.761719 25.761719 22.691406 25.890625 22.589844 C 26.039062 22.46875 26.152344 22.316406 26.226562 22.144531 C 26.296875 21.976562 26.335938 21.789062 26.335938 21.601562 C 26.335938 21.410156 26.296875 21.214844 26.21875 21.039062 C 26.109375 20.78125 25.929688 20.5625 25.710938 20.386719 C 25.496094 20.210938 25.242188 20.078125 24.980469 19.988281 C 24.84375 19.945312 24.703125 19.925781 24.566406 19.925781 C 24.355469 19.925781 24.140625 19.964844 23.929688 20.007812 C 23.722656 20.046875 23.515625 20.089844 23.320312 20.097656 C 23.273438 20.097656 23.226562 20.101562 23.179688 20.101562 C 23.0625 20.101562 22.941406 20.097656 22.816406 20.09375 C 22.691406 20.085938 22.5625 20.082031 22.433594 20.082031 C 22.210938 20.082031 21.984375 20.097656 21.78125 20.15625 C 21.679688 20.1875 21.582031 20.230469 21.488281 20.285156 C 21.398438 20.34375 21.320312 20.417969 21.25 20.507812 C 21.152344 20.636719 21.082031 20.769531 21.035156 20.910156 C 20.992188 21.046875 20.972656 21.1875 20.972656 21.328125 C 20.972656 21.328125 20.972656 21.332031 20.972656 21.335938 C 20.777344 21.320312 20.582031 21.308594 20.386719 21.300781 C 20.335938 21.296875 20.289062 21.296875 20.242188 21.296875 C 19.878906 21.296875 19.535156 21.367188 19.199219 21.441406 C 18.859375 21.519531 18.527344 21.605469 18.191406 21.644531 C 17.976562 21.667969 17.765625 21.683594 17.554688 21.683594 C 17.371094 21.683594 17.191406 21.671875 17.007812 21.640625 C 16.617188 21.578125 16.265625 21.429688 15.984375 21.207031 C 15.84375 21.09375 15.722656 20.960938 15.621094 20.808594 C 15.523438 20.65625 15.445312 20.484375 15.394531 20.289062 C 15.355469 20.132812 15.339844 19.976562 15.339844 19.820312 C 15.339844 19.515625 15.40625 19.210938 15.523438 18.921875 C 15.636719 18.632812 15.796875 18.359375 15.980469 18.109375 C 16.007812 18.070312 16.039062 18.027344 16.070312 17.980469 C 16.074219 17.980469 16.074219 17.984375 16.074219 17.984375 C 16.167969 18.050781 16.269531 18.097656 16.382812 18.128906 C 16.496094 18.160156 16.613281 18.171875 16.734375 18.171875 C 16.972656 18.171875 17.222656 18.121094 17.445312 18.035156 C 17.554688 17.992188 17.660156 17.941406 17.753906 17.886719 C 17.847656 17.828125 17.933594 17.765625 18.003906 17.699219 C 18.078125 17.625 18.140625 17.539062 18.183594 17.449219 C 18.222656 17.355469 18.246094 17.261719 18.246094 17.164062 C 18.246094 17.109375 18.238281 17.054688 18.222656 17.003906 C 18.199219 16.925781 18.15625 16.855469 18.089844 16.796875 C 18.023438 16.738281 17.941406 16.695312 17.835938 16.667969 C 17.75 16.644531 17.667969 16.636719 17.585938 16.636719 C 17.488281 16.636719 17.390625 16.648438 17.300781 16.675781 C 17.140625 16.722656 16.988281 16.800781 16.847656 16.902344 C 16.636719 17.054688 16.445312 17.253906 16.28125 17.453125 C 16.199219 17.554688 16.121094 17.652344 16.050781 17.746094 C 16.042969 17.742188 16.039062 17.734375 16.035156 17.726562 C 15.996094 17.675781 15.96875 17.621094 15.953125 17.558594 C 15.933594 17.496094 15.925781 17.429688 15.925781 17.363281 C 15.925781 17.222656 15.960938 17.070312 16.003906 16.933594 C 16.15625 16.496094 16.417969 16.089844 16.757812 15.757812 C 17.09375 15.429688 17.503906 15.171875 17.949219 15.03125 C 18.148438 14.96875 18.347656 14.941406 18.542969 14.941406 C 18.746094 14.941406 18.945312 14.96875 19.144531 15.027344 C 19.339844 15.085938 19.53125 15.175781 19.722656 15.28125 C 19.921875 15.398438 20.109375 15.53125 20.292969 15.671875 C 20.480469 15.8125 20.664062 15.957031 20.855469 16.097656 C 21.144531 16.3125 21.453125 16.511719 21.777344 16.683594 C 21.589844 16.957031 21.441406 17.253906 21.328125 17.570312 C 21.199219 17.5625 21.070312 17.558594 20.941406 17.558594 C 20.449219 17.558594 19.957031 17.625 19.488281 17.765625 C 19.019531 17.90625 18.570312 18.121094 18.171875 18.40625 C 18.039062 18.503906 17.910156 18.613281 17.796875 18.738281 C 17.742188 18.804688 17.691406 18.871094 17.648438 18.945312 C 17.605469 19.015625 17.570312 19.09375 17.542969 19.179688 C 17.519531 19.265625 17.507812 19.355469 17.507812 19.441406 C 17.507812 19.5625 17.527344 19.675781 17.566406 19.789062 C 17.628906 19.953125 17.726562 20.109375 17.847656 20.242188 C 17.972656 20.371094 18.125 20.476562 18.292969 20.550781 C 18.496094 20.632812 18.714844 20.671875 18.933594 20.671875 C 19.269531 20.671875 19.609375 20.582031 19.914062 20.449219 C 20.109375 20.363281 20.300781 20.257812 20.476562 20.121094 C 20.648438 19.992188 20.800781 19.832031 20.917969 19.648438 C 21.003906 19.503906 21.070312 19.359375 21.121094 19.207031 C 21.195312 18.980469 21.238281 18.746094 21.277344 18.511719 C 21.316406 18.28125 21.351562 18.050781 21.414062 17.835938 C 21.421875 17.804688 21.433594 17.773438 21.441406 17.742188 C 21.941406 17.789062 22.410156 17.910156 22.859375 18.085938 C 23.546875 18.351562 24.191406 18.742188 24.816406 19.171875 C 25.441406 19.601562 26.046875 20.070312 26.664062 20.492188 C 26.878906 20.640625 27.117188 20.785156 27.367188 20.890625 C 27.492188 20.945312 27.621094 20.988281 27.753906 21.023438 C 27.886719 21.054688 28.023438 21.070312 28.160156 21.070312 C 28.324219 21.070312 28.488281 21.046875 28.648438 20.988281 C 28.785156 20.941406 28.902344 20.867188 29 20.777344 C 29.148438 20.640625 29.253906 20.46875 29.328125 20.285156 C 29.40625 20.101562 29.449219 19.90625 29.464844 19.714844 C 29.480469 19.589844 29.488281 19.460938 29.488281 19.332031 C 29.480469 18.832031 29.382812 18.335938 29.199219 17.875 Z M 13.023438 17.4375 C 13.152344 17.339844 13.3125 17.265625 13.503906 17.222656 C 13.566406 17.207031 13.636719 17.199219 13.703125 17.199219 C 13.804688 17.199219 13.910156 17.21875 14.003906 17.253906 C 14.101562 17.289062 14.183594 17.34375 14.253906 17.414062 C 14.308594 17.472656 14.355469 17.542969 14.382812 17.617188 C 14.414062 17.695312 14.429688 17.777344 14.429688 17.859375 C 14.429688 17.941406 14.414062 18.019531 14.382812 18.089844 C 14.347656 18.160156 14.296875 18.222656 14.230469 18.269531 C 14.179688 18.304688 14.128906 18.332031 14.070312 18.347656 C 14.015625 18.363281 13.957031 18.371094 13.894531 18.371094 C 13.765625 18.371094 13.632812 18.335938 13.515625 18.277344 C 13.398438 18.21875 13.292969 18.136719 13.226562 18.042969 C 13.101562 17.875 13.011719 17.6875 12.945312 17.496094 C 12.972656 17.476562 12.996094 17.457031 13.023438 17.4375 Z M 15.335938 13.847656 C 15.339844 13.847656 15.34375 13.847656 15.351562 13.847656 C 15.503906 13.847656 15.660156 13.878906 15.792969 13.945312 C 15.859375 13.976562 15.921875 14.015625 15.972656 14.0625 C 16.027344 14.113281 16.074219 14.164062 16.105469 14.226562 C 16.148438 14.296875 16.167969 14.382812 16.167969 14.460938 C 16.167969 14.5 16.164062 14.539062 16.152344 14.574219 C 16.140625 14.609375 16.125 14.644531 16.105469 14.671875 C 16.074219 14.710938 16.03125 14.742188 15.980469 14.765625 C 15.933594 14.789062 15.878906 14.804688 15.820312 14.808594 C 15.800781 14.8125 15.78125 14.8125 15.757812 14.8125 C 15.664062 14.8125 15.566406 14.789062 15.480469 14.746094 C 15.394531 14.703125 15.320312 14.644531 15.265625 14.566406 C 15.214844 14.5 15.183594 14.4375 15.160156 14.371094 C 15.140625 14.308594 15.128906 14.242188 15.128906 14.179688 C 15.128906 14.105469 15.144531 14.03125 15.167969 13.957031 C 15.179688 13.921875 15.191406 13.886719 15.207031 13.851562 C 15.25 13.851562 15.289062 13.847656 15.335938 13.847656 Z M 20.027344 12.558594 C 20.140625 12.621094 20.246094 12.699219 20.328125 12.796875 C 20.367188 12.84375 20.402344 12.894531 20.429688 12.949219 C 20.460938 13.003906 20.480469 13.058594 20.492188 13.117188 C 20.5 13.15625 20.503906 13.195312 20.503906 13.230469 C 20.503906 13.347656 20.46875 13.464844 20.40625 13.566406 C 20.347656 13.667969 20.257812 13.753906 20.152344 13.804688 C 20.066406 13.847656 19.972656 13.867188 19.875 13.867188 C 19.785156 13.867188 19.691406 13.851562 19.609375 13.816406 C 19.527344 13.78125 19.453125 13.730469 19.390625 13.667969 C 19.324219 13.59375 19.277344 13.523438 19.246094 13.457031 C 19.21875 13.390625 19.203125 13.324219 19.203125 13.265625 C 19.203125 13.214844 19.214844 13.164062 19.230469 13.113281 C 19.257812 13.027344 19.3125 12.945312 19.386719 12.863281 C 19.496094 12.742188 19.644531 12.632812 19.804688 12.542969 C 19.835938 12.527344 19.867188 12.507812 19.894531 12.492188 C 19.941406 12.511719 19.984375 12.535156 20.027344 12.558594 Z M 24.453125 13.613281 C 24.511719 13.746094 24.542969 13.878906 24.542969 14.007812 C 24.542969 14.109375 24.523438 14.207031 24.480469 14.304688 C 24.433594 14.402344 24.367188 14.496094 24.265625 14.589844 C 24.199219 14.648438 24.125 14.695312 24.042969 14.722656 C 23.960938 14.753906 23.875 14.769531 23.792969 14.769531 C 23.714844 14.769531 23.640625 14.757812 23.574219 14.734375 C 23.523438 14.714844 23.472656 14.695312 23.429688 14.664062 C 23.363281 14.621094 23.3125 14.566406 23.273438 14.496094 C 23.238281 14.429688 23.214844 14.351562 23.214844 14.253906 C 23.214844 14.222656 23.21875 14.183594 23.226562 14.144531 C 23.242188 14.03125 23.292969 13.925781 23.363281 13.835938 C 23.4375 13.742188 23.53125 13.664062 23.632812 13.605469 C 23.808594 13.511719 23.992188 13.441406 24.179688 13.398438 C 24.226562 13.390625 24.273438 13.378906 24.320312 13.371094 C 24.371094 13.453125 24.417969 13.53125 24.453125 13.613281 Z M 27.945312 16.765625 C 27.933594 16.882812 27.898438 17.003906 27.847656 17.117188 C 27.769531 17.285156 27.652344 17.433594 27.507812 17.539062 C 27.441406 17.59375 27.363281 17.636719 27.285156 17.667969 C 27.203125 17.695312 27.121094 17.710938 27.039062 17.710938 C 26.976562 17.710938 26.914062 17.703125 26.847656 17.683594 C 26.785156 17.664062 26.71875 17.636719 26.652344 17.597656 C 26.546875 17.53125 26.46875 17.445312 26.414062 17.34375 C 26.359375 17.246094 26.332031 17.132812 26.332031 17.019531 C 26.332031 16.90625 26.359375 16.789062 26.417969 16.683594 C 26.460938 16.601562 26.511719 16.535156 26.566406 16.480469 C 26.648438 16.394531 26.734375 16.339844 26.832031 16.300781 C 26.929688 16.265625 27.035156 16.25 27.144531 16.25 C 27.242188 16.25 27.34375 16.261719 27.445312 16.289062 C 27.601562 16.328125 27.753906 16.394531 27.898438 16.476562 C 27.917969 16.488281 27.941406 16.503906 27.964844 16.515625 C 27.960938 16.601562 27.953125 16.683594 27.945312 16.765625 Z M 21.125 21.328125 C 21.125 21.203125 21.144531 21.078125 21.183594 20.957031 C 21.222656 20.835938 21.285156 20.71875 21.375 20.601562 C 21.429688 20.523438 21.5 20.464844 21.574219 20.417969 C 21.6875 20.34375 21.820312 20.300781 21.964844 20.273438 C 22.109375 20.246094 22.269531 20.238281 22.429688 20.238281 C 22.554688 20.238281 22.683594 20.242188 22.808594 20.246094 C 22.933594 20.25 23.058594 20.257812 23.175781 20.257812 C 23.226562 20.257812 23.277344 20.253906 23.324219 20.253906 C 23.539062 20.246094 23.75 20.199219 23.957031 20.160156 C 24.164062 20.121094 24.371094 20.082031 24.5625 20.082031 C 24.6875 20.082031 24.808594 20.097656 24.925781 20.136719 C 25.171875 20.21875 25.40625 20.34375 25.605469 20.507812 C 25.804688 20.671875 25.96875 20.871094 26.070312 21.101562 C 26.136719 21.257812 26.171875 21.429688 26.171875 21.605469 C 26.171875 21.769531 26.140625 21.9375 26.074219 22.085938 C 26.011719 22.234375 25.914062 22.367188 25.789062 22.46875 C 25.675781 22.558594 25.546875 22.617188 25.40625 22.660156 C 25.265625 22.699219 25.113281 22.71875 24.964844 22.71875 C 24.945312 22.71875 24.921875 22.71875 24.902344 22.71875 C 24.695312 22.710938 24.496094 22.675781 24.300781 22.617188 C 24.003906 22.527344 23.71875 22.390625 23.4375 22.238281 C 23.152344 22.085938 22.875 21.910156 22.59375 21.753906 C 22.253906 21.5625 21.890625 21.460938 21.519531 21.398438 C 21.386719 21.378906 21.253906 21.363281 21.125 21.347656 C 21.125 21.339844 21.125 21.332031 21.125 21.328125 Z M 16.285156 17.6875 C 16.460938 17.464844 16.660156 17.238281 16.878906 17.066406 C 16.992188 16.984375 17.105469 16.914062 17.222656 16.863281 C 17.339844 16.816406 17.457031 16.789062 17.578125 16.789062 C 17.648438 16.789062 17.71875 16.796875 17.789062 16.816406 C 17.84375 16.832031 17.890625 16.851562 17.925781 16.875 C 17.980469 16.910156 18.019531 16.949219 18.042969 17 C 18.070312 17.046875 18.082031 17.101562 18.082031 17.160156 C 18.082031 17.230469 18.0625 17.304688 18.03125 17.378906 C 17.996094 17.453125 17.945312 17.523438 17.886719 17.582031 C 17.824219 17.640625 17.753906 17.695312 17.664062 17.75 C 17.535156 17.824219 17.382812 17.890625 17.222656 17.9375 C 17.058594 17.984375 16.886719 18.011719 16.726562 18.011719 C 16.582031 18.011719 16.445312 17.992188 16.324219 17.945312 C 16.265625 17.921875 16.210938 17.894531 16.160156 17.855469 C 16.160156 17.855469 16.160156 17.855469 16.15625 17.851562 C 16.199219 17.800781 16.242188 17.742188 16.285156 17.6875 Z M 22.304688 16.292969 C 22.515625 16.089844 22.753906 15.917969 23.019531 15.785156 C 23.285156 15.65625 23.574219 15.566406 23.886719 15.53125 C 23.96875 15.523438 24.054688 15.515625 24.140625 15.515625 C 24.261719 15.515625 24.378906 15.527344 24.492188 15.550781 C 24.605469 15.578125 24.714844 15.621094 24.816406 15.679688 C 24.925781 15.746094 25.023438 15.84375 25.09375 15.953125 C 25.128906 16.007812 25.15625 16.066406 25.175781 16.128906 C 25.195312 16.1875 25.203125 16.25 25.203125 16.308594 C 25.203125 16.351562 25.199219 16.394531 25.191406 16.433594 C 25.167969 16.527344 25.125 16.605469 25.070312 16.675781 C 25.023438 16.730469 24.972656 16.777344 24.914062 16.820312 C 24.824219 16.882812 24.71875 16.933594 24.605469 16.976562 C 24.496094 17.015625 24.378906 17.042969 24.261719 17.058594 C 24.117188 17.078125 23.972656 17.085938 23.828125 17.085938 C 23.316406 17.085938 22.808594 16.964844 22.320312 16.761719 C 22.214844 16.71875 22.109375 16.671875 22.007812 16.621094 C 22.097656 16.507812 22.199219 16.398438 22.304688 16.292969 Z M 21.253906 17.785156 C 21.167969 18.089844 21.132812 18.40625 21.074219 18.710938 C 21.042969 18.859375 21.011719 19.007812 20.964844 19.152344 C 20.917969 19.292969 20.859375 19.429688 20.777344 19.558594 C 20.671875 19.726562 20.53125 19.871094 20.371094 19.992188 C 20.210938 20.117188 20.03125 20.21875 19.84375 20.300781 C 19.554688 20.425781 19.234375 20.507812 18.925781 20.507812 C 18.722656 20.507812 18.527344 20.476562 18.347656 20.398438 C 18.152344 20.320312 17.980469 20.179688 17.855469 20.007812 C 17.792969 19.921875 17.742188 19.828125 17.710938 19.734375 C 17.675781 19.636719 17.65625 19.539062 17.65625 19.4375 C 17.65625 19.363281 17.667969 19.292969 17.6875 19.21875 C 17.707031 19.148438 17.738281 19.082031 17.773438 19.019531 C 17.832031 18.925781 17.902344 18.839844 17.984375 18.757812 C 18.070312 18.675781 18.160156 18.601562 18.257812 18.53125 C 18.640625 18.253906 19.070312 18.050781 19.523438 17.914062 C 19.980469 17.777344 20.457031 17.710938 20.933594 17.714844 C 21.046875 17.714844 21.160156 17.714844 21.269531 17.722656 C 21.269531 17.742188 21.261719 17.765625 21.253906 17.785156 Z M 21.253906 17.785156 " fill-opacity="1" fill-rule="nonzero"/></g></svg>