<svg xmlns="http://www.w3.org/2000/svg" xmlns:xlink="http://www.w3.org/1999/xlink" width="150" zoomAndPan="magnify" viewBox="0 0 112.5 30.000001" height="40" preserveAspectRatio="xMidYMid meet" version="1.0"><defs><g/><clipPath id="b115a0ef4e"><path d="M 105 11 L 110.445312 11 L 110.445312 18 L 105 18 Z M 105 11 " clip-rule="nonzero"/></clipPath><clipPath id="1537fb24e3"><path d="M 4.488281 5.570312 L 24.902344 5.570312 L 24.902344 23.796875 L 4.488281 23.796875 Z M 4.488281 5.570312 " clip-rule="nonzero"/></clipPath></defs><g fill="#000000" fill-opacity="1"><g transform="translate(27.965518, 17.313958)"><g><path d="M 0.851562 0 L 1.238281 0 C 1.152344 -1.019531 1.140625 -1.507812 1.140625 -2.390625 L 1.140625 -9.097656 L 5.34375 0.242188 L 5.5625 0.242188 L 9.558594 -9.132812 L 9.558594 -2.390625 C 9.558594 -1.507812 9.546875 -1.019531 9.472656 0 L 10.859375 0 C 10.773438 -1.019531 10.761719 -1.507812 10.761719 -2.390625 L 10.761719 -7.324219 C 10.761719 -8.210938 10.773438 -8.695312 10.859375 -9.714844 L 9.605469 -9.714844 L 5.988281 -1.371094 L 2.1875 -9.714844 L 0.851562 -9.714844 C 0.921875 -8.695312 0.949219 -8.210938 0.949219 -7.324219 L 0.949219 -2.390625 C 0.949219 -1.507812 0.921875 -1.019531 0.851562 0 Z M 0.851562 0 "/></g></g></g><g fill="#000000" fill-opacity="1"><g transform="translate(39.137108, 17.313958)"><g><path d="M 6.253906 0 C 6.074219 -0.910156 6.074219 -1.53125 6.074219 -2.355469 L 6.074219 -4.203125 C 6.058594 -5.5 5.210938 -5.976562 3.984375 -5.976562 C 2.78125 -5.976562 1.664062 -5.453125 0.863281 -4.894531 C 0.960938 -4.300781 1.601562 -4.214844 1.980469 -4.675781 C 2.308594 -5.039062 2.671875 -5.78125 3.863281 -5.78125 C 4.628906 -5.78125 5.015625 -5.296875 5.015625 -4.421875 C 5.015625 -3.667969 4.324219 -3.472656 3.304688 -3.304688 C 2.039062 -3.097656 0.691406 -2.695312 0.691406 -1.347656 C 0.691406 -0.242188 1.664062 0.242188 2.671875 0.242188 C 3.996094 0.242188 4.722656 -0.496094 5.015625 -1.421875 C 5.027344 -0.972656 5.050781 -0.59375 5.113281 0 Z M 3.132812 -0.121094 C 2.390625 -0.121094 1.859375 -0.59375 1.859375 -1.492188 C 1.859375 -2.40625 2.40625 -2.925781 3.484375 -3.15625 C 4.214844 -3.316406 4.75 -3.414062 5.015625 -3.789062 L 5.015625 -2.5 C 5.015625 -1.128906 4.273438 -0.121094 3.132812 -0.121094 Z M 3.132812 -0.121094 "/></g></g></g><g fill="#000000" fill-opacity="1"><g transform="translate(45.548537, 17.313958)"><g><path d="M 4.941406 -5.734375 C 3.558594 -5.949219 2.855469 -5.222656 1.929688 -4.226562 C 1.941406 -4.6875 1.96875 -5.148438 2.027344 -5.734375 L 0.777344 -5.734375 C 0.875 -4.820312 0.875 -4.203125 0.875 -3.449219 L 0.875 -2.269531 C 0.875 -1.53125 0.875 -0.910156 0.777344 0 L 2.027344 0 C 1.929688 -0.910156 1.929688 -1.53125 1.929688 -2.269531 L 1.929688 -3.945312 C 3.109375 -5.148438 3.523438 -5.222656 4.105469 -5.015625 C 4.75 -4.796875 5.078125 -5.199219 4.941406 -5.734375 Z M 4.941406 -5.734375 "/></g></g></g><g fill="#000000" fill-opacity="1"><g transform="translate(50.284192, 17.313958)"><g><path d="M 1.617188 -7.214844 L 2.453125 -7.980469 L 1.617188 -8.746094 L 0.777344 -7.980469 Z M 0.996094 -5.734375 C 1.09375 -4.820312 1.09375 -4.203125 1.09375 -3.449219 L 1.09375 -2.269531 C 1.09375 -1.53125 1.09375 -0.910156 0.996094 0 L 2.246094 0 C 2.148438 -0.910156 2.148438 -1.53125 2.148438 -2.269531 L 2.148438 -3.449219 C 2.148438 -4.203125 2.148438 -4.820312 2.246094 -5.734375 Z M 0.996094 -5.734375 "/></g></g></g><g fill="#000000" fill-opacity="1"><g transform="translate(52.97979, 17.313958)"><g><path d="M 4.957031 -5.734375 C 5.089844 -4.566406 5.089844 -4.117188 5.089844 -3.363281 L 5.089844 -1.554688 C 4.699219 -0.800781 4.03125 -0.046875 3.097656 -0.046875 C 2.320312 -0.046875 1.980469 -0.632812 1.980469 -1.738281 L 1.980469 -5.734375 L 0.777344 -5.734375 C 0.921875 -4.566406 0.921875 -4.117188 0.921875 -3.363281 L 0.921875 -2.050781 C 0.921875 -0.4375 1.542969 0.242188 2.734375 0.242188 C 3.886719 0.242188 4.675781 -0.546875 5.078125 -1.300781 C 5.066406 -0.949219 5.050781 -0.558594 5.003906 0 L 6.144531 0 L 6.144531 -5.734375 Z M 4.957031 -5.734375 "/></g></g></g><g fill="#000000" fill-opacity="1"><g transform="translate(59.36693, 17.313958)"><g><path d="M 7.652344 0 L 8.890625 0 C 8.792969 -1.164062 8.792969 -1.617188 8.792969 -2.355469 L 8.792969 -3.933594 C 8.792969 -5.296875 8.34375 -5.976562 7.421875 -5.976562 C 6.4375 -5.976562 5.734375 -5.148438 5.34375 -4.421875 C 5.246094 -5.453125 4.796875 -5.976562 3.996094 -5.976562 C 3.011719 -5.976562 2.308594 -5.136719 1.941406 -4.410156 C 1.957031 -4.808594 1.980469 -5.222656 2.027344 -5.734375 L 0.777344 -5.734375 C 0.875 -4.820312 0.875 -4.203125 0.875 -3.449219 L 0.875 -2.269531 C 0.875 -1.53125 0.875 -0.910156 0.777344 0 L 2.027344 0 C 1.929688 -0.910156 1.929688 -1.53125 1.929688 -2.269531 L 1.929688 -4.082031 C 2.320312 -4.847656 2.867188 -5.636719 3.632812 -5.636719 C 4.164062 -5.636719 4.3125 -5.148438 4.3125 -4.164062 L 4.3125 -2.355469 C 4.3125 -1.617188 4.3125 -1.164062 4.214844 0 L 5.464844 0 C 5.367188 -1.164062 5.367188 -1.617188 5.367188 -2.355469 L 5.367188 -4.140625 C 5.769531 -4.882812 6.316406 -5.636719 7.054688 -5.636719 C 7.589844 -5.636719 7.75 -5.148438 7.75 -4.164062 L 7.75 -2.355469 C 7.75 -1.617188 7.75 -1.164062 7.652344 0 Z M 7.652344 0 "/></g></g></g><g fill="#000000" fill-opacity="1"><g transform="translate(68.498448, 17.313958)"><g/></g></g><g fill="#000000" fill-opacity="1"><g transform="translate(71.436905, 17.313958)"><g><path d="M 11.597656 -4.859375 C 11.597656 -7.832031 9.265625 -9.957031 6.15625 -9.957031 C 3.046875 -9.957031 0.730469 -7.832031 0.730469 -4.859375 C 0.730469 -1.871094 3.046875 0.242188 6.15625 0.242188 C 6.414062 0.242188 6.65625 0.230469 6.898438 0.207031 C 6.945312 0.28125 6.996094 0.363281 7.054688 0.449219 C 7.542969 1.191406 8.40625 1.359375 9.398438 1.359375 L 9.398438 1.179688 C 8.5 1.179688 8.027344 0.777344 7.640625 0.183594 L 7.578125 0.0859375 C 9.945312 -0.449219 11.597656 -2.34375 11.597656 -4.859375 Z M 7.410156 -0.15625 C 7.082031 -0.621094 6.691406 -0.984375 6.046875 -0.984375 C 5.464844 -0.984375 5.050781 -0.605469 4.785156 -0.195312 C 3.046875 -0.863281 2.039062 -2.792969 2.039062 -4.859375 C 2.039062 -7.410156 3.582031 -9.765625 6.15625 -9.765625 C 8.730469 -9.765625 10.285156 -7.410156 10.285156 -4.859375 C 10.285156 -2.746094 9.230469 -0.777344 7.410156 -0.15625 Z M 6.15625 0.046875 C 5.734375 0.046875 5.34375 -0.0117188 4.96875 -0.132812 C 5.160156 -0.472656 5.527344 -0.789062 5.9375 -0.789062 C 6.386719 -0.789062 6.582031 -0.414062 6.800781 0 C 6.59375 0.0351562 6.375 0.046875 6.15625 0.046875 Z M 6.15625 0.046875 "/></g></g></g><g fill="#000000" fill-opacity="1"><g transform="translate(83.227801, 17.313958)"><g><path d="M 6.253906 0 C 6.074219 -0.910156 6.074219 -1.53125 6.074219 -2.355469 L 6.074219 -4.203125 C 6.058594 -5.5 5.210938 -5.976562 3.984375 -5.976562 C 2.78125 -5.976562 1.664062 -5.453125 0.863281 -4.894531 C 0.960938 -4.300781 1.601562 -4.214844 1.980469 -4.675781 C 2.308594 -5.039062 2.671875 -5.78125 3.863281 -5.78125 C 4.628906 -5.78125 5.015625 -5.296875 5.015625 -4.421875 C 5.015625 -3.667969 4.324219 -3.472656 3.304688 -3.304688 C 2.039062 -3.097656 0.691406 -2.695312 0.691406 -1.347656 C 0.691406 -0.242188 1.664062 0.242188 2.671875 0.242188 C 3.996094 0.242188 4.722656 -0.496094 5.015625 -1.421875 C 5.027344 -0.972656 5.050781 -0.59375 5.113281 0 Z M 3.132812 -0.121094 C 2.390625 -0.121094 1.859375 -0.59375 1.859375 -1.492188 C 1.859375 -2.40625 2.40625 -2.925781 3.484375 -3.15625 C 4.214844 -3.316406 4.75 -3.414062 5.015625 -3.789062 L 5.015625 -2.5 C 5.015625 -1.128906 4.273438 -0.121094 3.132812 -0.121094 Z M 3.132812 -0.121094 "/></g></g></g><g fill="#000000" fill-opacity="1"><g transform="translate(89.639229, 17.313958)"><g><path d="M 7.652344 0 L 8.890625 0 C 8.792969 -1.164062 8.792969 -1.617188 8.792969 -2.355469 L 8.792969 -3.933594 C 8.792969 -5.296875 8.34375 -5.976562 7.421875 -5.976562 C 6.4375 -5.976562 5.734375 -5.148438 5.34375 -4.421875 C 5.246094 -5.453125 4.796875 -5.976562 3.996094 -5.976562 C 3.011719 -5.976562 2.308594 -5.136719 1.941406 -4.410156 C 1.957031 -4.808594 1.980469 -5.222656 2.027344 -5.734375 L 0.777344 -5.734375 C 0.875 -4.820312 0.875 -4.203125 0.875 -3.449219 L 0.875 -2.269531 C 0.875 -1.53125 0.875 -0.910156 0.777344 0 L 2.027344 0 C 1.929688 -0.910156 1.929688 -1.53125 1.929688 -2.269531 L 1.929688 -4.082031 C 2.320312 -4.847656 2.867188 -5.636719 3.632812 -5.636719 C 4.164062 -5.636719 4.3125 -5.148438 4.3125 -4.164062 L 4.3125 -2.355469 C 4.3125 -1.617188 4.3125 -1.164062 4.214844 0 L 5.464844 0 C 5.367188 -1.164062 5.367188 -1.617188 5.367188 -2.355469 L 5.367188 -4.140625 C 5.769531 -4.882812 6.316406 -5.636719 7.054688 -5.636719 C 7.589844 -5.636719 7.75 -5.148438 7.75 -4.164062 L 7.75 -2.355469 C 7.75 -1.617188 7.75 -1.164062 7.652344 0 Z M 7.652344 0 "/></g></g></g><g fill="#000000" fill-opacity="1"><g transform="translate(98.77075, 17.313958)"><g><path d="M 6.253906 0 C 6.074219 -0.910156 6.074219 -1.53125 6.074219 -2.355469 L 6.074219 -4.203125 C 6.058594 -5.5 5.210938 -5.976562 3.984375 -5.976562 C 2.78125 -5.976562 1.664062 -5.453125 0.863281 -4.894531 C 0.960938 -4.300781 1.601562 -4.214844 1.980469 -4.675781 C 2.308594 -5.039062 2.671875 -5.78125 3.863281 -5.78125 C 4.628906 -5.78125 5.015625 -5.296875 5.015625 -4.421875 C 5.015625 -3.667969 4.324219 -3.472656 3.304688 -3.304688 C 2.039062 -3.097656 0.691406 -2.695312 0.691406 -1.347656 C 0.691406 -0.242188 1.664062 0.242188 2.671875 0.242188 C 3.996094 0.242188 4.722656 -0.496094 5.015625 -1.421875 C 5.027344 -0.972656 5.050781 -0.59375 5.113281 0 Z M 3.132812 -0.121094 C 2.390625 -0.121094 1.859375 -0.59375 1.859375 -1.492188 C 1.859375 -2.40625 2.40625 -2.925781 3.484375 -3.15625 C 4.214844 -3.316406 4.75 -3.414062 5.015625 -3.789062 L 5.015625 -2.5 C 5.015625 -1.128906 4.273438 -0.121094 3.132812 -0.121094 Z M 3.132812 -0.121094 "/></g></g></g><g clip-path="url(#b115a0ef4e)"><g fill="#000000" fill-opacity="1"><g transform="translate(105.182181, 17.313958)"><g><path d="M 4.941406 -5.734375 C 3.558594 -5.949219 2.855469 -5.222656 1.929688 -4.226562 C 1.941406 -4.6875 1.96875 -5.148438 2.027344 -5.734375 L 0.777344 -5.734375 C 0.875 -4.820312 0.875 -4.203125 0.875 -3.449219 L 0.875 -2.269531 C 0.875 -1.53125 0.875 -0.910156 0.777344 0 L 2.027344 0 C 1.929688 -0.910156 1.929688 -1.53125 1.929688 -2.269531 L 1.929688 -3.945312 C 3.109375 -5.148438 3.523438 -5.222656 4.105469 -5.015625 C 4.75 -4.796875 5.078125 -5.199219 4.941406 -5.734375 Z M 4.941406 -5.734375 "/></g></g></g></g><g clip-path="url(#1537fb24e3)"><path fill="#231f20" d="M 24.558594 12.902344 C 24.339844 12.339844 24.011719 11.824219 23.585938 11.394531 C 23.492188 11.304688 23.386719 11.214844 23.273438 11.132812 C 23.269531 10.488281 23.121094 9.859375 22.835938 9.300781 C 22.550781 8.734375 22.128906 8.238281 21.585938 7.882812 C 21.253906 7.660156 20.875 7.476562 20.480469 7.347656 C 20.085938 7.21875 19.671875 7.144531 19.257812 7.144531 C 19.113281 7.144531 18.964844 7.152344 18.824219 7.171875 C 18.820312 7.167969 18.816406 7.160156 18.8125 7.15625 C 18.597656 6.855469 18.320312 6.585938 18.035156 6.359375 C 17.890625 6.25 17.75 6.148438 17.609375 6.066406 C 17.46875 5.984375 17.339844 5.914062 17.21875 5.863281 C 16.726562 5.660156 16.21875 5.574219 15.707031 5.574219 C 15.074219 5.574219 14.4375 5.710938 13.835938 5.921875 C 13.714844 5.964844 13.585938 6.019531 13.453125 6.085938 C 12.875 5.8125 12.246094 5.679688 11.621094 5.679688 C 10.816406 5.679688 10.011719 5.898438 9.304688 6.328125 C 9.011719 6.503906 8.589844 6.792969 8.230469 7.148438 C 8.050781 7.324219 7.890625 7.515625 7.769531 7.722656 C 7.757812 7.746094 7.742188 7.769531 7.734375 7.792969 C 7.382812 7.835938 7.050781 7.953125 6.746094 8.121094 C 6.171875 8.441406 5.691406 8.953125 5.355469 9.554688 C 5.019531 10.152344 4.828125 10.839844 4.828125 11.515625 C 4.828125 11.8125 4.863281 12.105469 4.945312 12.386719 C 4.917969 12.410156 4.898438 12.4375 4.875 12.464844 C 4.742188 12.632812 4.644531 12.828125 4.582031 13.035156 C 4.519531 13.242188 4.488281 13.464844 4.488281 13.691406 C 4.488281 14.09375 4.582031 14.511719 4.753906 14.882812 C 4.839844 15.066406 4.945312 15.242188 5.066406 15.398438 C 5.1875 15.550781 5.328125 15.691406 5.484375 15.800781 C 5.703125 15.957031 5.941406 16.070312 6.191406 16.152344 C 6.4375 16.230469 6.695312 16.273438 6.957031 16.285156 C 7.011719 16.285156 7.054688 16.246094 7.058594 16.191406 C 7.058594 16.140625 7.019531 16.09375 6.964844 16.09375 C 6.722656 16.082031 6.476562 16.042969 6.25 15.96875 C 6.015625 15.894531 5.796875 15.785156 5.589844 15.640625 C 5.453125 15.542969 5.324219 15.421875 5.214844 15.277344 C 5.046875 15.0625 4.910156 14.808594 4.820312 14.535156 C 4.726562 14.261719 4.679688 13.972656 4.679688 13.691406 C 4.679688 13.507812 4.703125 13.328125 4.746094 13.15625 C 4.78125 13.03125 4.828125 12.910156 4.886719 12.796875 C 4.925781 12.730469 4.96875 12.664062 5.015625 12.601562 C 5.09375 12.820312 5.207031 13.03125 5.34375 13.226562 C 5.445312 13.371094 5.589844 13.488281 5.757812 13.574219 C 5.921875 13.660156 6.105469 13.707031 6.289062 13.707031 C 6.378906 13.707031 6.472656 13.695312 6.554688 13.671875 C 6.644531 13.644531 6.726562 13.605469 6.800781 13.550781 C 6.910156 13.46875 6.992188 13.363281 7.042969 13.25 C 7.097656 13.136719 7.121094 13.011719 7.121094 12.890625 C 7.121094 12.765625 7.097656 12.640625 7.050781 12.523438 C 7.007812 12.40625 6.941406 12.300781 6.855469 12.210938 C 6.753906 12.097656 6.625 12.019531 6.488281 11.964844 C 6.351562 11.914062 6.207031 11.886719 6.0625 11.886719 C 5.964844 11.886719 5.875 11.898438 5.785156 11.917969 C 5.558594 11.96875 5.363281 12.054688 5.199219 12.167969 C 5.167969 12.191406 5.132812 12.21875 5.101562 12.242188 C 5.046875 12.007812 5.019531 11.765625 5.019531 11.519531 C 5.019531 11.09375 5.097656 10.660156 5.25 10.25 C 5.472656 9.632812 5.851562 9.0625 6.328125 8.648438 C 6.570312 8.445312 6.832031 8.273438 7.113281 8.15625 C 7.285156 8.085938 7.460938 8.035156 7.644531 8.003906 C 7.640625 8.015625 7.632812 8.027344 7.628906 8.042969 C 7.597656 8.152344 7.578125 8.261719 7.578125 8.375 C 7.578125 8.472656 7.589844 8.574219 7.625 8.671875 C 7.65625 8.769531 7.703125 8.867188 7.773438 8.960938 C 7.855469 9.082031 7.96875 9.175781 8.101562 9.242188 C 8.226562 9.308594 8.371094 9.34375 8.515625 9.34375 C 8.550781 9.34375 8.582031 9.34375 8.613281 9.339844 C 8.699219 9.328125 8.785156 9.304688 8.867188 9.265625 C 8.945312 9.226562 9.019531 9.167969 9.078125 9.09375 C 9.121094 9.039062 9.148438 8.976562 9.167969 8.914062 C 9.1875 8.851562 9.195312 8.785156 9.195312 8.71875 C 9.195312 8.585938 9.160156 8.453125 9.097656 8.339844 C 9.046875 8.242188 8.976562 8.160156 8.898438 8.085938 C 8.785156 7.980469 8.640625 7.902344 8.492188 7.851562 C 8.34375 7.800781 8.1875 7.773438 8.03125 7.773438 C 8.023438 7.773438 8.015625 7.773438 8.003906 7.773438 C 7.992188 7.773438 7.976562 7.773438 7.964844 7.777344 C 7.996094 7.722656 8.035156 7.667969 8.074219 7.617188 C 8.253906 7.378906 8.492188 7.152344 8.734375 6.960938 C 8.972656 6.769531 9.21875 6.609375 9.402344 6.496094 C 10.074219 6.082031 10.847656 5.871094 11.617188 5.871094 C 12.171875 5.871094 12.722656 5.980469 13.242188 6.203125 C 13.175781 6.238281 13.113281 6.28125 13.050781 6.324219 C 12.886719 6.441406 12.738281 6.574219 12.625 6.726562 C 12.570312 6.804688 12.523438 6.886719 12.488281 6.972656 C 12.457031 7.058594 12.4375 7.152344 12.4375 7.246094 C 12.4375 7.347656 12.460938 7.453125 12.507812 7.558594 C 12.550781 7.660156 12.621094 7.765625 12.710938 7.867188 C 12.804688 7.96875 12.917969 8.046875 13.039062 8.101562 C 13.160156 8.152344 13.292969 8.179688 13.425781 8.179688 C 13.570312 8.179688 13.710938 8.148438 13.84375 8.082031 C 14.003906 8 14.132812 7.871094 14.222656 7.71875 C 14.3125 7.5625 14.363281 7.386719 14.363281 7.207031 C 14.363281 7.148438 14.359375 7.089844 14.347656 7.027344 C 14.328125 6.9375 14.300781 6.851562 14.257812 6.773438 C 14.195312 6.652344 14.113281 6.542969 14.019531 6.449219 C 13.925781 6.359375 13.816406 6.277344 13.703125 6.214844 C 13.691406 6.210938 13.675781 6.203125 13.667969 6.195312 C 13.746094 6.160156 13.824219 6.128906 13.894531 6.101562 C 14.484375 5.894531 15.097656 5.765625 15.707031 5.765625 C 16.195312 5.765625 16.679688 5.851562 17.144531 6.042969 C 17.3125 6.113281 17.511719 6.226562 17.722656 6.371094 C 18.03125 6.585938 18.355469 6.875 18.597656 7.191406 C 18.605469 7.195312 18.609375 7.203125 18.613281 7.210938 C 18.339844 7.265625 18.074219 7.363281 17.820312 7.503906 C 17.675781 7.582031 17.542969 7.695312 17.441406 7.832031 C 17.339844 7.96875 17.265625 8.125 17.238281 8.296875 C 17.230469 8.355469 17.226562 8.410156 17.226562 8.460938 C 17.226562 8.59375 17.25 8.710938 17.300781 8.816406 C 17.335938 8.894531 17.382812 8.960938 17.441406 9.023438 C 17.527344 9.109375 17.628906 9.175781 17.742188 9.21875 C 17.855469 9.261719 17.980469 9.285156 18.101562 9.285156 C 18.226562 9.285156 18.351562 9.265625 18.46875 9.21875 C 18.585938 9.175781 18.699219 9.105469 18.796875 9.015625 C 18.929688 8.886719 19.03125 8.746094 19.09375 8.605469 C 19.160156 8.460938 19.1875 8.308594 19.1875 8.160156 C 19.1875 8.035156 19.167969 7.90625 19.128906 7.785156 C 19.085938 7.636719 19.019531 7.496094 18.9375 7.355469 C 19.042969 7.34375 19.148438 7.339844 19.257812 7.339844 C 19.644531 7.339844 20.042969 7.40625 20.421875 7.53125 C 20.800781 7.65625 21.160156 7.832031 21.484375 8.042969 C 22 8.382812 22.398438 8.851562 22.667969 9.386719 C 22.917969 9.882812 23.0625 10.441406 23.078125 11.007812 C 23.023438 10.976562 22.964844 10.945312 22.90625 10.917969 C 22.777344 10.855469 22.644531 10.804688 22.507812 10.769531 C 22.375 10.734375 22.238281 10.714844 22.097656 10.714844 C 22 10.714844 21.898438 10.726562 21.800781 10.75 C 21.65625 10.785156 21.519531 10.847656 21.390625 10.949219 C 21.269531 11.046875 21.15625 11.179688 21.066406 11.347656 C 20.980469 11.507812 20.941406 11.679688 20.941406 11.851562 C 20.941406 12.023438 20.980469 12.191406 21.0625 12.339844 C 21.140625 12.492188 21.261719 12.625 21.414062 12.722656 C 21.503906 12.78125 21.601562 12.824219 21.691406 12.847656 C 21.789062 12.878906 21.878906 12.890625 21.972656 12.890625 C 22.140625 12.890625 22.300781 12.847656 22.445312 12.773438 C 22.660156 12.664062 22.847656 12.484375 22.988281 12.273438 C 23.128906 12.058594 23.21875 11.8125 23.246094 11.5625 C 23.253906 11.496094 23.257812 11.433594 23.261719 11.367188 C 23.328125 11.421875 23.390625 11.476562 23.449219 11.535156 C 23.855469 11.941406 24.167969 12.4375 24.378906 12.976562 C 24.589844 13.515625 24.703125 14.097656 24.703125 14.683594 C 24.703125 14.832031 24.695312 14.984375 24.679688 15.136719 C 24.664062 15.277344 24.636719 15.425781 24.597656 15.570312 C 24.539062 15.785156 24.445312 15.988281 24.320312 16.15625 C 24.257812 16.242188 24.183594 16.316406 24.105469 16.378906 C 24.023438 16.445312 23.929688 16.496094 23.828125 16.535156 C 23.65625 16.597656 23.480469 16.625 23.308594 16.625 C 23.160156 16.625 23.015625 16.605469 22.867188 16.566406 C 22.648438 16.515625 22.433594 16.425781 22.226562 16.316406 C 22.015625 16.207031 21.816406 16.078125 21.628906 15.949219 C 20.652344 15.261719 19.691406 14.46875 18.660156 13.816406 C 18.140625 13.492188 17.609375 13.199219 17.046875 12.976562 C 16.507812 12.761719 15.945312 12.609375 15.347656 12.542969 C 15.476562 12.179688 15.644531 11.835938 15.859375 11.527344 C 15.992188 11.597656 16.128906 11.664062 16.269531 11.71875 C 16.867188 11.976562 17.5 12.132812 18.144531 12.132812 C 18.324219 12.132812 18.503906 12.121094 18.6875 12.097656 C 18.816406 12.078125 18.953125 12.046875 19.085938 12 C 19.28125 11.9375 19.472656 11.839844 19.628906 11.707031 C 19.707031 11.636719 19.773438 11.5625 19.828125 11.476562 C 19.882812 11.386719 19.925781 11.292969 19.949219 11.183594 C 19.964844 11.117188 19.972656 11.054688 19.972656 10.988281 C 19.972656 10.890625 19.957031 10.796875 19.929688 10.707031 C 19.890625 10.570312 19.820312 10.441406 19.730469 10.332031 C 19.644531 10.21875 19.535156 10.121094 19.414062 10.046875 C 19.277344 9.964844 19.128906 9.90625 18.976562 9.871094 C 18.824219 9.835938 18.667969 9.820312 18.511719 9.820312 C 18.402344 9.820312 18.296875 9.828125 18.191406 9.839844 C 17.796875 9.886719 17.425781 10 17.09375 10.171875 C 16.589844 10.425781 16.164062 10.800781 15.824219 11.253906 C 15.816406 11.265625 15.808594 11.273438 15.800781 11.28125 C 15.417969 11.074219 15.046875 10.832031 14.703125 10.570312 C 14.480469 10.398438 14.261719 10.21875 14.035156 10.046875 C 13.808594 9.871094 13.578125 9.703125 13.332031 9.554688 C 13.097656 9.417969 12.851562 9.304688 12.601562 9.226562 C 12.351562 9.148438 12.09375 9.109375 11.832031 9.109375 C 11.578125 9.109375 11.320312 9.148438 11.0625 9.230469 C 10.503906 9.414062 9.988281 9.742188 9.566406 10.167969 C 9.140625 10.59375 8.8125 11.117188 8.621094 11.683594 C 8.558594 11.867188 8.515625 12.070312 8.515625 12.273438 C 8.515625 12.371094 8.523438 12.472656 8.550781 12.566406 C 8.578125 12.664062 8.621094 12.753906 8.683594 12.835938 C 8.699219 12.859375 8.71875 12.882812 8.738281 12.902344 C 8.695312 12.960938 8.652344 13.019531 8.613281 13.074219 C 8.390625 13.390625 8.1875 13.742188 8.046875 14.113281 C 7.902344 14.484375 7.816406 14.878906 7.816406 15.28125 C 7.816406 15.488281 7.839844 15.699219 7.890625 15.90625 C 7.953125 16.160156 8.054688 16.394531 8.183594 16.597656 C 8.378906 16.90625 8.640625 17.152344 8.945312 17.335938 C 9.25 17.519531 9.597656 17.644531 9.96875 17.707031 C 10.195312 17.742188 10.425781 17.761719 10.652344 17.761719 C 10.910156 17.761719 11.171875 17.738281 11.429688 17.710938 C 11.851562 17.660156 12.257812 17.554688 12.660156 17.457031 C 13.058594 17.363281 13.453125 17.285156 13.859375 17.285156 C 13.914062 17.285156 13.96875 17.285156 14.023438 17.289062 C 14.265625 17.300781 14.503906 17.316406 14.742188 17.335938 C 14.761719 17.511719 14.804688 17.691406 14.867188 17.863281 C 14.996094 18.222656 15.199219 18.5625 15.4375 18.867188 C 15.675781 19.171875 15.941406 19.433594 16.199219 19.640625 C 16.425781 19.824219 16.660156 19.996094 16.890625 20.171875 C 17.117188 20.347656 17.335938 20.527344 17.535156 20.730469 C 17.792969 21 17.972656 21.289062 18.085938 21.601562 C 18.203125 21.917969 18.253906 22.253906 18.253906 22.609375 C 18.253906 22.734375 18.25 22.863281 18.234375 22.992188 C 18.21875 23.179688 18.15625 23.402344 18.054688 23.644531 C 18.03125 23.691406 18.054688 23.75 18.101562 23.769531 C 18.152344 23.792969 18.207031 23.769531 18.226562 23.71875 C 18.335938 23.464844 18.402344 23.226562 18.425781 23.007812 C 18.4375 22.875 18.441406 22.738281 18.441406 22.609375 C 18.441406 22.230469 18.390625 21.871094 18.265625 21.535156 C 18.140625 21.195312 17.945312 20.878906 17.667969 20.59375 C 17.464844 20.378906 17.234375 20.195312 17.003906 20.015625 C 16.773438 19.839844 16.539062 19.667969 16.3125 19.488281 C 15.988281 19.226562 15.636719 18.855469 15.371094 18.445312 C 15.234375 18.234375 15.121094 18.019531 15.046875 17.796875 C 14.992188 17.648438 14.953125 17.5 14.933594 17.347656 C 15.078125 17.363281 15.222656 17.382812 15.359375 17.40625 C 15.792969 17.476562 16.203125 17.601562 16.582031 17.820312 C 17.023438 18.074219 17.46875 18.363281 17.9375 18.597656 C 18.171875 18.714844 18.410156 18.816406 18.660156 18.894531 C 18.90625 18.96875 19.160156 19.019531 19.425781 19.023438 C 19.453125 19.023438 19.480469 19.027344 19.507812 19.027344 C 19.699219 19.027344 19.898438 19.003906 20.085938 18.949219 C 20.273438 18.890625 20.453125 18.804688 20.609375 18.679688 C 20.785156 18.53125 20.921875 18.34375 21.007812 18.136719 C 21.09375 17.929688 21.140625 17.699219 21.140625 17.46875 C 21.140625 17.234375 21.09375 16.996094 21.003906 16.777344 C 20.867188 16.460938 20.652344 16.195312 20.394531 15.980469 C 20.136719 15.761719 19.835938 15.597656 19.519531 15.492188 C 19.359375 15.4375 19.191406 15.417969 19.027344 15.417969 C 18.773438 15.417969 18.519531 15.464844 18.269531 15.515625 C 18.019531 15.5625 17.773438 15.613281 17.542969 15.625 C 17.484375 15.628906 17.429688 15.628906 17.371094 15.628906 C 17.234375 15.628906 17.085938 15.625 16.9375 15.617188 C 16.789062 15.613281 16.632812 15.605469 16.480469 15.605469 C 16.214844 15.605469 15.945312 15.625 15.703125 15.699219 C 15.578125 15.734375 15.460938 15.785156 15.355469 15.855469 C 15.246094 15.925781 15.152344 16.015625 15.066406 16.128906 C 14.949219 16.285156 14.867188 16.449219 14.8125 16.621094 C 14.757812 16.789062 14.734375 16.960938 14.734375 17.132812 C 14.734375 17.136719 14.734375 17.140625 14.734375 17.140625 C 14.503906 17.121094 14.269531 17.109375 14.035156 17.097656 C 13.976562 17.09375 13.921875 17.09375 13.863281 17.09375 C 13.433594 17.09375 13.023438 17.179688 12.621094 17.273438 C 12.214844 17.367188 11.816406 17.472656 11.414062 17.519531 C 11.160156 17.550781 10.910156 17.570312 10.65625 17.570312 C 10.4375 17.570312 10.222656 17.554688 10.003906 17.519531 C 9.539062 17.441406 9.117188 17.261719 8.78125 16.984375 C 8.613281 16.847656 8.46875 16.683594 8.347656 16.496094 C 8.230469 16.308594 8.140625 16.097656 8.078125 15.859375 C 8.03125 15.667969 8.011719 15.476562 8.011719 15.285156 C 8.011719 14.914062 8.09375 14.539062 8.230469 14.1875 C 8.367188 13.832031 8.558594 13.492188 8.777344 13.1875 C 8.8125 13.136719 8.847656 13.085938 8.886719 13.03125 C 8.886719 13.03125 8.886719 13.035156 8.890625 13.035156 C 9 13.117188 9.125 13.175781 9.257812 13.210938 C 9.390625 13.25 9.53125 13.265625 9.675781 13.265625 C 9.960938 13.265625 10.257812 13.199219 10.523438 13.097656 C 10.65625 13.042969 10.78125 12.984375 10.894531 12.914062 C 11.007812 12.84375 11.109375 12.765625 11.191406 12.683594 C 11.28125 12.59375 11.355469 12.488281 11.40625 12.378906 C 11.457031 12.265625 11.484375 12.148438 11.484375 12.027344 C 11.484375 11.960938 11.472656 11.894531 11.457031 11.832031 C 11.425781 11.738281 11.375 11.652344 11.296875 11.578125 C 11.21875 11.507812 11.117188 11.453125 10.992188 11.421875 C 10.890625 11.390625 10.792969 11.382812 10.691406 11.382812 C 10.574219 11.382812 10.460938 11.398438 10.351562 11.429688 C 10.164062 11.488281 9.980469 11.585938 9.8125 11.710938 C 9.5625 11.894531 9.335938 12.136719 9.136719 12.382812 C 9.039062 12.503906 8.945312 12.625 8.859375 12.742188 C 8.855469 12.734375 8.847656 12.730469 8.84375 12.722656 C 8.796875 12.660156 8.761719 12.589844 8.742188 12.511719 C 8.722656 12.4375 8.710938 12.355469 8.710938 12.273438 C 8.710938 12.101562 8.75 11.914062 8.808594 11.746094 C 8.984375 11.210938 9.300781 10.710938 9.703125 10.308594 C 10.105469 9.902344 10.597656 9.585938 11.128906 9.417969 C 11.367188 9.339844 11.605469 9.304688 11.839844 9.304688 C 12.078125 9.304688 12.320312 9.339844 12.554688 9.414062 C 12.789062 9.484375 13.019531 9.589844 13.242188 9.722656 C 13.480469 9.863281 13.703125 10.027344 13.929688 10.199219 C 14.152344 10.371094 14.371094 10.550781 14.597656 10.722656 C 14.941406 10.988281 15.3125 11.230469 15.699219 11.441406 C 15.476562 11.773438 15.296875 12.140625 15.164062 12.527344 C 15.007812 12.515625 14.855469 12.511719 14.703125 12.511719 C 14.113281 12.511719 13.523438 12.597656 12.964844 12.769531 C 12.402344 12.941406 11.871094 13.199219 11.394531 13.554688 C 11.234375 13.671875 11.078125 13.804688 10.945312 13.960938 C 10.878906 14.039062 10.820312 14.121094 10.765625 14.210938 C 10.714844 14.300781 10.675781 14.398438 10.644531 14.5 C 10.613281 14.605469 10.601562 14.714844 10.601562 14.820312 C 10.601562 14.96875 10.625 15.109375 10.671875 15.246094 C 10.742188 15.449219 10.859375 15.640625 11.007812 15.800781 C 11.15625 15.960938 11.335938 16.09375 11.539062 16.179688 C 11.78125 16.28125 12.042969 16.328125 12.300781 16.328125 C 12.703125 16.328125 13.109375 16.21875 13.472656 16.058594 C 13.707031 15.953125 13.9375 15.820312 14.144531 15.65625 C 14.347656 15.492188 14.53125 15.300781 14.671875 15.074219 C 14.777344 14.898438 14.855469 14.71875 14.914062 14.53125 C 15.003906 14.253906 15.050781 13.964844 15.097656 13.683594 C 15.144531 13.398438 15.191406 13.117188 15.265625 12.851562 C 15.273438 12.8125 15.285156 12.777344 15.296875 12.734375 C 15.894531 12.796875 16.453125 12.945312 16.988281 13.160156 C 17.8125 13.488281 18.578125 13.964844 19.324219 14.492188 C 20.070312 15.019531 20.792969 15.59375 21.53125 16.109375 C 21.789062 16.289062 22.070312 16.464844 22.371094 16.597656 C 22.519531 16.664062 22.675781 16.71875 22.835938 16.757812 C 22.992188 16.796875 23.152344 16.820312 23.320312 16.820312 C 23.511719 16.820312 23.707031 16.785156 23.902344 16.714844 C 24.0625 16.660156 24.203125 16.566406 24.320312 16.457031 C 24.496094 16.292969 24.625 16.082031 24.714844 15.855469 C 24.804688 15.628906 24.855469 15.390625 24.878906 15.15625 C 24.890625 15 24.902344 14.84375 24.902344 14.6875 C 24.894531 14.074219 24.777344 13.464844 24.558594 12.902344 Z M 5.246094 12.363281 C 5.402344 12.242188 5.589844 12.152344 5.820312 12.101562 C 5.898438 12.082031 5.976562 12.074219 6.058594 12.074219 C 6.179688 12.074219 6.304688 12.09375 6.417969 12.136719 C 6.53125 12.179688 6.632812 12.246094 6.714844 12.335938 C 6.78125 12.40625 6.835938 12.492188 6.871094 12.585938 C 6.910156 12.679688 6.925781 12.785156 6.925781 12.882812 C 6.925781 12.980469 6.910156 13.078125 6.867188 13.164062 C 6.828125 13.25 6.769531 13.324219 6.6875 13.386719 C 6.628906 13.425781 6.566406 13.460938 6.5 13.476562 C 6.433594 13.5 6.359375 13.507812 6.285156 13.507812 C 6.136719 13.507812 5.976562 13.464844 5.835938 13.394531 C 5.691406 13.324219 5.570312 13.222656 5.488281 13.105469 C 5.34375 12.898438 5.230469 12.671875 5.15625 12.4375 C 5.183594 12.414062 5.214844 12.390625 5.246094 12.363281 Z M 8.003906 7.964844 C 8.011719 7.964844 8.019531 7.964844 8.027344 7.964844 C 8.207031 7.964844 8.394531 8.003906 8.554688 8.082031 C 8.632812 8.125 8.707031 8.171875 8.769531 8.230469 C 8.832031 8.289062 8.886719 8.351562 8.929688 8.429688 C 8.976562 8.515625 9.003906 8.621094 9.003906 8.71875 C 9.003906 8.765625 8.996094 8.8125 8.984375 8.855469 C 8.96875 8.898438 8.949219 8.9375 8.925781 8.972656 C 8.886719 9.023438 8.835938 9.058594 8.78125 9.089844 C 8.722656 9.117188 8.65625 9.136719 8.589844 9.144531 C 8.5625 9.148438 8.539062 9.148438 8.511719 9.148438 C 8.398438 9.148438 8.285156 9.121094 8.183594 9.066406 C 8.078125 9.015625 7.988281 8.9375 7.921875 8.84375 C 7.863281 8.765625 7.824219 8.6875 7.800781 8.605469 C 7.773438 8.527344 7.761719 8.449219 7.761719 8.371094 C 7.761719 8.28125 7.777344 8.1875 7.808594 8.097656 C 7.820312 8.054688 7.835938 8.011719 7.855469 7.96875 C 7.902344 7.96875 7.953125 7.964844 8.003906 7.964844 Z M 13.609375 6.382812 C 13.742188 6.460938 13.867188 6.558594 13.964844 6.675781 C 14.015625 6.734375 14.058594 6.796875 14.089844 6.863281 C 14.125 6.929688 14.148438 6.996094 14.164062 7.070312 C 14.171875 7.113281 14.175781 7.164062 14.175781 7.210938 C 14.175781 7.351562 14.136719 7.496094 14.0625 7.621094 C 13.988281 7.746094 13.882812 7.847656 13.757812 7.910156 C 13.65625 7.960938 13.542969 7.988281 13.425781 7.988281 C 13.320312 7.988281 13.210938 7.964844 13.109375 7.925781 C 13.011719 7.882812 12.921875 7.820312 12.847656 7.742188 C 12.769531 7.652344 12.710938 7.5625 12.675781 7.484375 C 12.640625 7.402344 12.625 7.324219 12.625 7.25 C 12.625 7.1875 12.636719 7.125 12.65625 7.066406 C 12.691406 6.960938 12.757812 6.855469 12.84375 6.757812 C 12.972656 6.609375 13.152344 6.476562 13.339844 6.363281 C 13.378906 6.34375 13.414062 6.324219 13.449219 6.300781 C 13.507812 6.328125 13.558594 6.355469 13.609375 6.382812 Z M 18.890625 7.675781 C 18.960938 7.839844 19 8.003906 19 8.160156 C 19 8.285156 18.976562 8.40625 18.921875 8.523438 C 18.871094 8.640625 18.789062 8.757812 18.667969 8.875 C 18.589844 8.949219 18.5 9.003906 18.402344 9.039062 C 18.304688 9.074219 18.203125 9.09375 18.101562 9.09375 C 18.011719 9.09375 17.921875 9.078125 17.84375 9.050781 C 17.78125 9.027344 17.722656 9 17.671875 8.964844 C 17.59375 8.910156 17.53125 8.84375 17.484375 8.761719 C 17.441406 8.679688 17.414062 8.578125 17.414062 8.460938 C 17.414062 8.421875 17.417969 8.375 17.425781 8.328125 C 17.449219 8.191406 17.507812 8.0625 17.59375 7.949219 C 17.679688 7.835938 17.789062 7.738281 17.914062 7.667969 C 18.121094 7.554688 18.339844 7.46875 18.566406 7.414062 C 18.621094 7.402344 18.675781 7.390625 18.734375 7.378906 C 18.796875 7.480469 18.847656 7.578125 18.890625 7.675781 Z M 23.0625 11.542969 C 23.046875 11.6875 23.007812 11.832031 22.945312 11.96875 C 22.851562 12.175781 22.710938 12.359375 22.539062 12.492188 C 22.457031 12.558594 22.367188 12.609375 22.273438 12.644531 C 22.175781 12.679688 22.078125 12.699219 21.980469 12.699219 C 21.90625 12.699219 21.828125 12.6875 21.753906 12.667969 C 21.675781 12.644531 21.597656 12.609375 21.519531 12.558594 C 21.394531 12.480469 21.300781 12.375 21.234375 12.25 C 21.167969 12.128906 21.136719 11.992188 21.136719 11.851562 C 21.136719 11.710938 21.167969 11.570312 21.238281 11.4375 C 21.289062 11.339844 21.347656 11.257812 21.414062 11.191406 C 21.511719 11.089844 21.617188 11.019531 21.734375 10.972656 C 21.847656 10.929688 21.972656 10.90625 22.105469 10.90625 C 22.222656 10.90625 22.34375 10.925781 22.464844 10.957031 C 22.652344 11.003906 22.835938 11.085938 23.003906 11.183594 C 23.03125 11.203125 23.058594 11.21875 23.082031 11.234375 C 23.078125 11.335938 23.070312 11.4375 23.0625 11.542969 Z M 14.921875 17.132812 C 14.921875 16.980469 14.941406 16.828125 14.988281 16.679688 C 15.039062 16.53125 15.109375 16.382812 15.214844 16.242188 C 15.285156 16.148438 15.367188 16.074219 15.457031 16.015625 C 15.589844 15.929688 15.75 15.875 15.921875 15.839844 C 16.09375 15.804688 16.285156 15.796875 16.476562 15.796875 C 16.625 15.796875 16.777344 15.800781 16.925781 15.808594 C 17.078125 15.8125 17.226562 15.820312 17.367188 15.820312 C 17.429688 15.820312 17.488281 15.816406 17.546875 15.816406 C 17.800781 15.804688 18.050781 15.75 18.300781 15.703125 C 18.550781 15.652344 18.792969 15.605469 19.023438 15.605469 C 19.171875 15.605469 19.316406 15.625 19.453125 15.671875 C 19.75 15.773438 20.03125 15.929688 20.269531 16.128906 C 20.507812 16.328125 20.703125 16.570312 20.824219 16.855469 C 20.902344 17.046875 20.945312 17.261719 20.945312 17.472656 C 20.945312 17.675781 20.90625 17.878906 20.828125 18.0625 C 20.753906 18.246094 20.636719 18.40625 20.488281 18.53125 C 20.351562 18.640625 20.195312 18.714844 20.027344 18.765625 C 19.859375 18.816406 19.679688 18.839844 19.503906 18.839844 C 19.480469 18.839844 19.453125 18.839844 19.429688 18.835938 C 19.183594 18.828125 18.945312 18.785156 18.707031 18.710938 C 18.359375 18.605469 18.015625 18.4375 17.679688 18.25 C 17.339844 18.0625 17.007812 17.847656 16.671875 17.65625 C 16.269531 17.421875 15.832031 17.296875 15.386719 17.222656 C 15.234375 17.195312 15.074219 17.175781 14.917969 17.160156 C 14.921875 17.148438 14.921875 17.140625 14.921875 17.132812 Z M 9.140625 12.671875 C 9.347656 12.398438 9.589844 12.121094 9.851562 11.910156 C 9.984375 11.808594 10.121094 11.71875 10.257812 11.664062 C 10.398438 11.601562 10.539062 11.570312 10.683594 11.570312 C 10.765625 11.570312 10.851562 11.582031 10.9375 11.605469 C 11 11.621094 11.058594 11.644531 11.097656 11.671875 C 11.167969 11.71875 11.210938 11.769531 11.242188 11.828125 C 11.269531 11.886719 11.285156 11.953125 11.285156 12.023438 C 11.285156 12.109375 11.265625 12.203125 11.222656 12.292969 C 11.183594 12.382812 11.125 12.46875 11.050781 12.542969 C 10.980469 12.613281 10.894531 12.679688 10.789062 12.746094 C 10.636719 12.839844 10.453125 12.921875 10.257812 12.980469 C 10.066406 13.035156 9.863281 13.070312 9.667969 13.070312 C 9.496094 13.070312 9.332031 13.042969 9.191406 12.988281 C 9.121094 12.957031 9.050781 12.921875 8.992188 12.878906 C 8.992188 12.878906 8.992188 12.875 8.988281 12.875 C 9.039062 12.808594 9.089844 12.738281 9.140625 12.671875 Z M 16.328125 10.964844 C 16.578125 10.710938 16.863281 10.5 17.179688 10.339844 C 17.496094 10.179688 17.84375 10.074219 18.214844 10.027344 C 18.316406 10.015625 18.417969 10.007812 18.515625 10.007812 C 18.664062 10.007812 18.804688 10.023438 18.941406 10.054688 C 19.074219 10.085938 19.207031 10.136719 19.324219 10.207031 C 19.457031 10.289062 19.574219 10.410156 19.660156 10.542969 C 19.699219 10.613281 19.734375 10.683594 19.753906 10.757812 C 19.777344 10.832031 19.789062 10.90625 19.789062 10.984375 C 19.789062 11.035156 19.78125 11.085938 19.773438 11.136719 C 19.746094 11.246094 19.695312 11.34375 19.628906 11.433594 C 19.574219 11.496094 19.511719 11.554688 19.441406 11.605469 C 19.335938 11.6875 19.210938 11.75 19.074219 11.796875 C 18.941406 11.847656 18.800781 11.882812 18.664062 11.898438 C 18.492188 11.925781 18.320312 11.9375 18.148438 11.9375 C 17.535156 11.9375 16.925781 11.785156 16.34375 11.539062 C 16.21875 11.484375 16.09375 11.425781 15.972656 11.367188 C 16.082031 11.226562 16.203125 11.089844 16.328125 10.964844 Z M 15.074219 12.789062 C 14.972656 13.164062 14.925781 13.550781 14.859375 13.921875 C 14.824219 14.109375 14.785156 14.292969 14.726562 14.464844 C 14.671875 14.636719 14.597656 14.808594 14.503906 14.964844 C 14.375 15.167969 14.210938 15.347656 14.019531 15.496094 C 13.828125 15.648438 13.613281 15.773438 13.386719 15.875 C 13.042969 16.03125 12.660156 16.128906 12.292969 16.128906 C 12.054688 16.128906 11.820312 16.089844 11.601562 15.996094 C 11.371094 15.898438 11.164062 15.722656 11.015625 15.515625 C 10.941406 15.410156 10.882812 15.296875 10.839844 15.179688 C 10.800781 15.0625 10.777344 14.9375 10.777344 14.816406 C 10.777344 14.726562 10.792969 14.636719 10.816406 14.546875 C 10.839844 14.464844 10.875 14.382812 10.917969 14.304688 C 10.984375 14.1875 11.074219 14.082031 11.171875 13.980469 C 11.269531 13.882812 11.382812 13.792969 11.496094 13.707031 C 11.953125 13.367188 12.464844 13.117188 13.007812 12.949219 C 13.550781 12.785156 14.121094 12.699219 14.691406 12.703125 C 14.824219 12.703125 14.960938 12.707031 15.09375 12.714844 C 15.089844 12.738281 15.082031 12.765625 15.074219 12.789062 Z M 15.074219 12.789062 " fill-opacity="1" fill-rule="nonzero"/></g></svg>