<svg width="600" height="440" viewBox="0 0 600 440" fill="none" xmlns="http://www.w3.org/2000/svg">
<g id="productivityapp1x" clip-path="url(#clip0_716_410)">
<rect width="600" height="440" fill="#A7A3EE"/>
<path id="Ellipse1" d="M600 100.654C600 156.243 549.851 112.929 492.414 112.929C434.976 112.929 392 156.243 392 100.654C392 45.0643 438.562 0 496 0C553.438 0 600 45.0643 600 100.654Z" fill="#6C63FF"/>
<path id="Ellipse2" d="M104.682 302.5C104.682 358.005 162.496 403 104.682 403C46.8676 403 0 358.005 0 302.5C0 246.995 46.8676 202 104.682 202C162.496 202 197.714 258.541 104.682 302.5Z" fill="#6C63FF"/>
<path id="Ellipse3" d="M511 336.833C511 392.706 464.438 438 407 438C349.562 438 303 392.706 303 336.833C303 280.959 349.562 336.833 407 336.833C464.438 336.833 511 280.959 511 336.833Z" fill="#6C63FF"/>
<circle id="Ellipse4" cx="511" cy="150" r="21" fill="#6C63FF"/>
<ellipse id="Ellipse5" cx="63.5" cy="150" rx="45.5" ry="45" fill="#6C63FF"/>
<ellipse id="Ellipse6" cx="282" cy="388.5" rx="33" ry="33.5" fill="#6C63FF"/>
<g id="blurbackground" filter="url(#filter0_b_716_410)">
<rect width="600" height="440" fill="#DFEBE9" fill-opacity="0.13"/>
</g>
<path id="Checked ." d="M247.829 215.318H244.182C243.918 215.318 243.581 215.055 243.171 214.527C242.761 213.971 242.277 213.268 241.721 212.418C241.193 211.568 240.578 210.631 239.875 209.605C239.172 208.551 238.337 207.511 237.37 206.485C236.433 205.46 235.422 204.522 234.338 203.673C233.283 202.823 232.023 202.135 230.559 201.607C229.123 201.051 227.629 200.772 226.076 200.772C223.352 200.772 220.832 201.271 218.518 202.267C216.203 203.233 214.24 204.552 212.629 206.222C211.018 207.862 209.626 209.796 208.454 212.022C207.312 214.22 206.462 216.549 205.905 219.01C205.378 221.471 205.114 223.99 205.114 226.568C205.114 229.029 205.437 231.432 206.081 233.775C206.755 236.09 207.766 238.287 209.113 240.367C210.49 242.447 212.131 244.278 214.035 245.86C215.969 247.413 218.298 248.658 221.022 249.596C223.747 250.504 226.706 250.958 229.899 250.958C236.726 250.958 243.024 248.805 248.796 244.498C249.938 246.021 250.51 247.516 250.51 248.98C250.51 251.09 249.367 253.038 247.082 254.825C244.826 256.583 242.043 257.916 238.732 258.824C235.422 259.732 232.082 260.187 228.713 260.187C224.201 260.187 220.041 259.557 216.232 258.297C212.453 257.037 209.245 255.338 206.608 253.199C203.972 251.061 201.716 248.57 199.841 245.729C197.995 242.857 196.633 239.825 195.754 236.632C194.904 233.438 194.479 230.143 194.479 226.744C194.479 222.145 195.227 217.765 196.721 213.604C198.215 209.444 200.28 205.812 202.917 202.706C205.554 199.601 208.82 197.14 212.717 195.323C216.613 193.478 220.817 192.555 225.329 192.555C228.2 192.555 231.101 193.199 234.03 194.488C236.989 195.748 239.377 197.623 241.193 200.113C241.193 195.719 241.765 193.521 242.907 193.521H247.829C249.235 193.521 249.938 195.045 249.938 198.092V209.825C249.938 211.495 249.851 212.726 249.675 213.517C249.528 214.278 249.323 214.762 249.06 214.967C248.825 215.143 248.415 215.26 247.829 215.318ZM266.093 199.762V218.351C268.173 216.153 270.663 214.352 273.563 212.945C276.464 211.539 279.569 210.836 282.88 210.836C284.784 210.836 286.527 211.158 288.109 211.803C289.721 212.447 291.186 213.443 292.504 214.791C293.852 216.139 294.906 218.014 295.668 220.416C296.43 222.818 296.811 225.646 296.811 228.897V246.783C296.811 249.566 297.543 251.017 299.008 251.134C299.242 251.163 299.564 251.192 299.975 251.222C300.414 251.251 300.751 251.28 300.985 251.31C301.249 251.339 301.557 251.383 301.908 251.441C302.26 251.471 302.538 251.515 302.743 251.573C302.948 251.603 303.183 251.661 303.446 251.749C303.739 251.808 303.959 251.881 304.105 251.969C304.252 252.057 304.398 252.159 304.545 252.276C304.691 252.394 304.794 252.54 304.853 252.716C304.911 252.862 304.94 253.038 304.94 253.243C304.94 256.466 304.311 258.502 303.051 259.352C300.561 259.117 298.129 259 295.756 259C294.555 259 293.207 259.059 291.713 259.176C290.219 259.293 289.091 259.352 288.329 259.352C288.007 259.352 287.743 259.293 287.538 259.176C287.362 259.088 287.201 258.81 287.055 258.341C286.908 257.872 286.835 257.198 286.835 256.319V229.688C286.835 225.88 286.176 223.097 284.857 221.339C283.568 219.552 281.854 218.658 279.716 218.658C277.665 218.658 275.409 219.273 272.948 220.504C270.517 221.734 268.231 223.316 266.093 225.25V247.97C266.093 248.409 266.107 248.761 266.137 249.024C266.195 249.259 266.298 249.537 266.444 249.859C266.62 250.182 266.913 250.431 267.323 250.606C267.733 250.753 268.261 250.826 268.905 250.826C270.019 250.826 270.971 251.002 271.762 251.354C272.553 251.705 272.948 252.232 272.948 252.936C272.948 256.363 272.465 258.502 271.498 259.352C268.744 259.117 265.36 259 261.347 259C257.099 259 253.568 259.117 250.756 259.352C249.789 258.473 249.306 256.334 249.306 252.936C249.306 252.232 249.701 251.705 250.492 251.354C251.283 251.002 252.235 250.826 253.349 250.826C254.491 250.826 255.238 250.592 255.59 250.123C255.941 249.625 256.117 248.937 256.117 248.058V205.87C256.117 204.317 255.663 203.219 254.755 202.574C253.876 201.93 252.162 201.549 249.613 201.432C249.232 201.344 248.983 201.153 248.866 200.86C248.778 200.567 248.734 199.938 248.734 198.971C248.734 197.477 248.896 196.158 249.218 195.016C249.54 193.873 249.862 193.214 250.185 193.038C252.616 193.36 254.945 193.521 257.172 193.521C258.49 193.521 259.882 193.448 261.347 193.302C262.812 193.126 263.588 193.038 263.676 193.038C264.701 193.038 265.36 193.302 265.653 193.829C265.976 194.327 266.137 195.499 266.137 197.345C266.137 197.55 266.122 197.931 266.093 198.487C266.093 199.015 266.093 199.439 266.093 199.762ZM348.956 233.028C348.956 234.376 348.604 235.416 347.901 236.148C347.228 236.852 345.938 237.203 344.034 237.203H313.712C313.829 239.869 314.298 242.169 315.118 244.103C315.938 246.036 317.022 247.56 318.37 248.673C319.718 249.757 321.197 250.562 322.809 251.09C324.42 251.588 326.178 251.837 328.082 251.837C330.748 251.837 333.473 251.368 336.256 250.431C339.039 249.493 341.559 248.175 343.814 246.476C345.484 248.438 346.319 250.372 346.319 252.276C346.319 253.536 345.484 254.781 343.814 256.012C342.145 257.213 339.889 258.209 337.047 259C334.205 259.791 331.246 260.187 328.17 260.187C325.65 260.187 323.248 259.938 320.963 259.439C318.707 258.941 316.48 258.077 314.283 256.847C312.115 255.587 310.24 254.005 308.658 252.101C307.076 250.196 305.802 247.75 304.835 244.762C303.868 241.773 303.385 238.39 303.385 234.61C303.385 230.919 304.088 227.535 305.494 224.459C306.9 221.383 308.761 218.878 311.075 216.944C313.39 214.981 315.968 213.473 318.81 212.418C321.681 211.363 324.625 210.836 327.643 210.836C329.869 210.836 332.008 211.114 334.059 211.671C336.109 212.228 338.043 213.106 339.859 214.308C341.676 215.479 343.258 216.93 344.605 218.658C345.953 220.357 347.008 222.438 347.77 224.898C348.561 227.359 348.956 230.069 348.956 233.028ZM340.079 230.392C339.815 226.319 338.526 223.229 336.212 221.119C333.927 218.98 331.188 217.911 327.994 217.911C324.596 217.911 321.505 219.054 318.722 221.339C315.968 223.595 314.386 226.612 313.976 230.392H340.079ZM389.808 222.613C389.808 224.342 389.192 225.807 387.962 227.008C386.761 228.209 384.856 228.81 382.249 228.81C381.634 228.81 381.253 228.678 381.106 228.414C380.989 228.121 380.872 227.374 380.755 226.173L380.096 219.889C379.891 219.742 379.598 219.581 379.217 219.405C378.865 219.2 378.045 218.937 376.756 218.614C375.496 218.263 374.163 218.087 372.757 218.087C368.304 218.087 364.7 219.815 361.946 223.272C359.222 226.7 357.859 230.787 357.859 235.533C357.859 240.66 359.192 244.659 361.858 247.53C364.524 250.401 368.377 251.837 373.416 251.837C375.76 251.837 378.309 251.339 381.062 250.343C383.846 249.347 386.116 248.072 387.874 246.52C389.544 248.482 390.379 250.357 390.379 252.145C390.379 253.609 389.515 254.972 387.786 256.231C386.058 257.491 383.831 258.458 381.106 259.132C378.411 259.835 375.599 260.187 372.669 260.187C369.271 260.187 366.062 259.659 363.045 258.604C360.057 257.521 357.405 255.968 355.091 253.946C352.776 251.896 350.945 249.259 349.598 246.036C348.25 242.784 347.576 239.122 347.576 235.05C347.576 231.271 348.279 227.828 349.686 224.723C351.121 221.588 353.011 219.039 355.354 217.076C357.698 215.084 360.32 213.561 363.221 212.506C366.15 211.422 369.153 210.88 372.229 210.88C375.364 210.88 378.089 211.202 380.403 211.847C382.747 212.462 384.578 213.326 385.896 214.439C387.244 215.553 388.226 216.798 388.841 218.175C389.485 219.522 389.808 221.002 389.808 222.613ZM406.138 199.762V229.601L420.024 221.339C421.519 220.255 422.295 219.654 422.354 219.537C422.383 219.508 422.397 219.449 422.397 219.361C422.397 219.215 422.222 219.127 421.87 219.098C421.548 219.039 421.167 218.995 420.728 218.966C420.317 218.937 419.937 218.717 419.585 218.307C419.263 217.867 419.102 217.223 419.102 216.373C419.102 214 419.497 212.389 420.288 211.539C422.251 211.92 425.664 212.11 430.527 212.11C434.072 212.11 437.031 211.92 439.404 211.539C440.342 211.949 440.811 213.707 440.811 216.812C440.811 217.896 440.708 218.658 440.503 219.098C440.298 219.537 439.902 219.845 439.316 220.021C438.73 220.196 438.057 220.343 437.295 220.46C436.562 220.548 435.493 220.87 434.087 221.427C432.71 221.983 431.274 222.774 429.78 223.8L419.146 230.743C426.616 240.06 430.864 245.436 431.89 246.871C432.183 247.281 432.549 247.823 432.988 248.497C433.457 249.142 433.75 249.537 433.867 249.684C434.014 249.83 434.277 250.035 434.658 250.299C435.039 250.562 435.435 250.724 435.845 250.782C436.255 250.812 436.841 250.826 437.603 250.826C441.265 250.826 443.096 251.529 443.096 252.936C443.096 256.334 442.612 258.473 441.646 259.352C438.921 259.117 435.771 259 432.197 259C429.326 259 425.957 259.117 422.09 259.352C421.973 258.766 421.797 257.989 421.562 257.022C421.357 256.026 421.196 255.221 421.079 254.605C420.991 253.961 420.947 253.419 420.947 252.979C420.947 251.896 422.207 251.236 424.727 251.002C424.287 250.299 423.555 249.259 422.529 247.882C421.504 246.505 419.878 244.366 417.651 241.466C415.425 238.536 413.667 236.222 412.378 234.522L406.138 238.39V247.97C406.138 248.409 406.152 248.761 406.182 249.024C406.24 249.259 406.343 249.537 406.489 249.859C406.665 250.182 406.958 250.431 407.368 250.606C407.778 250.753 408.306 250.826 408.95 250.826C410.063 250.826 411.016 251.002 411.807 251.354C412.598 251.705 412.993 252.232 412.993 252.936C412.993 256.363 412.51 258.502 411.543 259.352C408.789 259.117 405.361 259 401.26 259C396.865 259 393.379 259.117 390.801 259.352C389.834 258.473 389.351 256.334 389.351 252.936C389.351 252.232 389.746 251.705 390.537 251.354C391.328 251.002 392.28 250.826 393.394 250.826C394.536 250.826 395.283 250.592 395.635 250.123C395.986 249.625 396.162 248.937 396.162 248.058V205.87C396.162 204.317 395.708 203.219 394.8 202.574C393.921 201.93 392.207 201.549 389.658 201.432C389.277 201.344 389.028 201.153 388.911 200.86C388.823 200.567 388.779 199.938 388.779 198.971C388.779 197.477 388.94 196.158 389.263 195.016C389.585 193.873 389.907 193.214 390.229 193.038C392.661 193.36 394.99 193.521 397.217 193.521C398.535 193.521 399.927 193.448 401.392 193.302C402.856 193.126 403.633 193.038 403.721 193.038C404.746 193.038 405.405 193.302 405.698 193.829C406.021 194.327 406.182 195.499 406.182 197.345C406.182 197.55 406.167 197.931 406.138 198.487C406.138 199.015 406.138 199.439 406.138 199.762ZM487.243 233.028C487.243 234.376 486.892 235.416 486.188 236.148C485.515 236.852 484.226 237.203 482.321 237.203H451.999C452.116 239.869 452.585 242.169 453.405 244.103C454.226 246.036 455.31 247.56 456.657 248.673C458.005 249.757 459.484 250.562 461.096 251.09C462.707 251.588 464.465 251.837 466.369 251.837C469.035 251.837 471.76 251.368 474.543 250.431C477.326 249.493 479.846 248.175 482.102 246.476C483.771 248.438 484.606 250.372 484.606 252.276C484.606 253.536 483.771 254.781 482.102 256.012C480.432 257.213 478.176 258.209 475.334 259C472.492 259.791 469.533 260.187 466.457 260.187C463.938 260.187 461.535 259.938 459.25 259.439C456.994 258.941 454.768 258.077 452.57 256.847C450.402 255.587 448.527 254.005 446.945 252.101C445.363 250.196 444.089 247.75 443.122 244.762C442.155 241.773 441.672 238.39 441.672 234.61C441.672 230.919 442.375 227.535 443.781 224.459C445.188 221.383 447.048 218.878 449.362 216.944C451.677 214.981 454.255 213.473 457.097 212.418C459.968 211.363 462.912 210.836 465.93 210.836C468.156 210.836 470.295 211.114 472.346 211.671C474.396 212.228 476.33 213.106 478.146 214.308C479.963 215.479 481.545 216.93 482.893 218.658C484.24 220.357 485.295 222.438 486.057 224.898C486.848 227.359 487.243 230.069 487.243 233.028ZM478.366 230.392C478.103 226.319 476.813 223.229 474.499 221.119C472.214 218.98 469.475 217.911 466.281 217.911C462.883 217.911 459.792 219.054 457.009 221.339C454.255 223.595 452.673 226.612 452.263 230.392H478.366ZM523.568 238.609V227.14C522.016 224.356 519.965 222.188 517.416 220.636C514.867 219.083 512.23 218.307 509.506 218.307C505.756 218.307 502.592 219.786 500.014 222.745C497.465 225.675 496.19 229.952 496.19 235.577C496.19 240.968 497.567 245.172 500.321 248.189C503.075 251.207 506.342 252.716 510.121 252.716C511.762 252.716 513.373 252.423 514.955 251.837C516.537 251.222 517.973 250.343 519.262 249.2C520.551 248.058 521.591 246.578 522.382 244.762C523.173 242.916 523.568 240.865 523.568 238.609ZM533.544 199.762V247.97C533.544 248.38 533.573 248.731 533.632 249.024C533.69 249.288 533.808 249.581 533.983 249.903C534.188 250.196 534.511 250.431 534.95 250.606C535.39 250.782 535.961 250.885 536.664 250.914C539.418 251.031 540.795 251.646 540.795 252.76C540.795 256.275 540.297 258.473 539.301 259.352C537.689 259.117 535.946 259 534.071 259C531.435 259 528.856 259.117 526.337 259.352C524.491 258.502 523.568 256.466 523.568 253.243V252.848C521.986 255.191 519.745 257.008 516.845 258.297C513.944 259.557 510.956 260.187 507.88 260.187C505.067 260.187 502.372 259.659 499.794 258.604C497.216 257.55 494.872 256.041 492.763 254.078C490.683 252.086 489.013 249.493 487.753 246.3C486.493 243.106 485.863 239.532 485.863 235.577C485.863 231.622 486.522 228.048 487.841 224.854C489.159 221.661 490.917 219.083 493.114 217.12C495.341 215.128 497.816 213.604 500.541 212.55C503.266 211.495 506.107 210.953 509.066 210.924H509.33C515.102 210.924 519.848 213.077 523.568 217.384V205.87C523.568 204.317 523.114 203.219 522.206 202.574C521.327 201.93 519.613 201.549 517.064 201.432C516.684 201.344 516.435 201.153 516.317 200.86C516.229 200.567 516.186 199.938 516.186 198.971C516.186 197.477 516.347 196.158 516.669 195.016C516.991 193.873 517.313 193.214 517.636 193.038C520.067 193.36 522.396 193.521 524.623 193.521C525.941 193.521 527.333 193.448 528.798 193.302C530.263 193.126 531.039 193.038 531.127 193.038C532.152 193.038 532.812 193.302 533.104 193.829C533.427 194.327 533.588 195.499 533.588 197.345C533.588 197.55 533.573 197.931 533.544 198.487C533.544 199.015 533.544 199.439 533.544 199.762ZM558.25 252.979C558.25 250.958 558.924 249.259 560.271 247.882C561.619 246.505 563.597 245.816 566.204 245.816C568.753 245.816 570.672 246.52 571.961 247.926C573.25 249.303 573.895 250.987 573.895 252.979C573.895 254.942 573.25 256.627 571.961 258.033C570.672 259.439 568.753 260.143 566.204 260.143C563.597 260.143 561.619 259.454 560.271 258.077C558.924 256.671 558.25 254.972 558.25 252.979Z" fill="white"/>
<g id="Rectangle 117" filter="url(#filter1_d_716_410)">
<rect x="22" y="147" width="146" height="146" rx="33" fill="url(#paint0_linear_716_410)" shape-rendering="crispEdges"/>
</g>
<g id="Group 17">
<path id="Subtract" fill-rule="evenodd" clip-rule="evenodd" d="M157.282 198.456L150.376 192.848C149.658 192.265 149.039 191.558 148.554 190.77C147.742 189.452 147.304 187.921 147.304 186.374V181.482L147.099 175.138C147.079 174.53 147.131 173.922 147.253 173.326L147.941 169.974C147.985 169.761 147.967 169.542 147.895 169.343C144.126 169.498 140.42 171.003 137.552 173.807L77.5365 232.458C75.6957 234.257 72.7899 234.365 70.8211 232.707L55.9826 220.211C48.9385 214.279 38.3146 215.715 33.0974 223.303C28.3617 230.191 29.9024 239.589 36.5896 244.604L67.3801 267.697C73.2714 272.115 81.4988 271.604 86.7973 266.489L157.282 198.456ZM150.876 169.503L152.462 169.825C151.937 169.69 151.408 169.583 150.876 169.503Z" fill="#3F3B8F"/>
<g id="Vector 8" filter="url(#filter2_d_716_410)">
<path d="M147.792 169.034L139.622 190.433C138.426 193.565 140.591 196.964 143.935 197.203L157.204 198.155C157.29 198.161 157.343 198.062 157.29 197.994L150.618 189.352C149.346 187.704 148.62 185.701 148.541 183.622L147.985 169.066C147.981 168.957 147.831 168.932 147.792 169.034Z" fill="url(#paint1_linear_716_410)"/>
</g>
</g>
</g>
<defs>
<filter id="filter0_b_716_410" x="-150" y="-150" width="900" height="740" filterUnits="userSpaceOnUse" color-interpolation-filters="sRGB">
<feFlood flood-opacity="0" result="BackgroundImageFix"/>
<feGaussianBlur in="BackgroundImageFix" stdDeviation="75"/>
<feComposite in2="SourceAlpha" operator="in" result="effect1_backgroundBlur_716_410"/>
<feBlend mode="normal" in="SourceGraphic" in2="effect1_backgroundBlur_716_410" result="shape"/>
</filter>
<filter id="filter1_d_716_410" x="12" y="141" width="166" height="166" filterUnits="userSpaceOnUse" color-interpolation-filters="sRGB">
<feFlood flood-opacity="0" result="BackgroundImageFix"/>
<feColorMatrix in="SourceAlpha" type="matrix" values="0 0 0 0 0 0 0 0 0 0 0 0 0 0 0 0 0 0 127 0" result="hardAlpha"/>
<feOffset dy="4"/>
<feGaussianBlur stdDeviation="5"/>
<feComposite in2="hardAlpha" operator="out"/>
<feColorMatrix type="matrix" values="0 0 0 0 0 0 0 0 0 0 0 0 0 0 0 0 0 0 0.25 0"/>
<feBlend mode="normal" in2="BackgroundImageFix" result="effect1_dropShadow_716_410"/>
<feBlend mode="normal" in="SourceGraphic" in2="effect1_dropShadow_716_410" result="shape"/>
</filter>
<filter id="filter2_d_716_410" x="138.289" y="165.97" width="22.0225" height="33.1851" filterUnits="userSpaceOnUse" color-interpolation-filters="sRGB">
<feFlood flood-opacity="0" result="BackgroundImageFix"/>
<feColorMatrix in="SourceAlpha" type="matrix" values="0 0 0 0 0 0 0 0 0 0 0 0 0 0 0 0 0 0 127 0" result="hardAlpha"/>
<feOffset dx="1" dy="-1"/>
<feGaussianBlur stdDeviation="1"/>
<feComposite in2="hardAlpha" operator="out"/>
<feColorMatrix type="matrix" values="0 0 0 0 0 0 0 0 0 0 0 0 0 0 0 0 0 0 0.25 0"/>
<feBlend mode="normal" in2="BackgroundImageFix" result="effect1_dropShadow_716_410"/>
<feBlend mode="normal" in="SourceGraphic" in2="effect1_dropShadow_716_410" result="shape"/>
</filter>
<linearGradient id="paint0_linear_716_410" x1="95" y1="147" x2="95" y2="293" gradientUnits="userSpaceOnUse">
<stop stop-color="white" stop-opacity="0.53"/>
<stop offset="1" stop-color="#F0EFFF"/>
</linearGradient>
<linearGradient id="paint1_linear_716_410" x1="142.265" y1="196.856" x2="158.326" y2="185.642" gradientUnits="userSpaceOnUse">
<stop stop-color="#AEABEE"/>
<stop offset="1" stop-color="#3F3B8F"/>
</linearGradient>
<clipPath id="clip0_716_410">
<rect width="600" height="440" fill="white"/>
</clipPath>
</defs>
</svg>
